<svg width="1074" height="1075" viewBox="0 0 1074 1075" fill="none" xmlns="http://www.w3.org/2000/svg">
<g filter="url(#filter0_n_88_1438)">
<path d="M339.247 370.973C328.608 382.529 315.011 380.687 298.459 365.447L263.56 333.316C248.448 319.402 246.989 305.824 259.181 292.582C264.204 287.126 269.16 283.958 274.048 283.078C278.906 282.169 283.942 283.097 289.158 285.86C294.373 288.623 300 292.784 306.039 298.344L291.476 314.161L284.303 307.557C282.556 305.948 280.874 304.853 279.258 304.271C277.639 303.63 276.138 304.06 274.755 305.562C273.034 307.432 272.519 309.252 273.212 311.022C273.932 312.762 275.043 314.323 276.545 315.706L315.766 351.817C317.942 353.821 319.974 355.182 321.861 355.9C323.746 356.559 325.451 356.061 326.975 354.406C328.555 352.69 328.925 350.934 328.084 349.141C327.241 347.288 325.701 345.332 323.463 343.272L311.922 332.646L307.943 336.968L293.965 324.099L312.169 304.328L359.298 347.72L353.329 354.203L343.984 350.696C346.414 358.145 344.835 364.904 339.247 370.973Z" fill="#E91A14"/>
<path d="M383.41 325.735L330.931 229.06L360.593 212.959C365.537 210.275 369.888 209.383 373.647 210.281C377.386 211.144 380.78 213.378 383.829 216.986C386.895 220.537 389.908 225.041 392.87 230.497C395.733 235.77 397.341 240.349 397.696 244.234C398.087 248.099 396.761 251.639 393.719 254.855C397.096 253.828 400.045 254.195 402.566 255.956C405.103 257.66 407.405 260.416 409.472 264.225L429.331 300.807L410.271 311.154L389.726 273.308C388.196 270.488 386.665 269.067 385.136 269.044C383.623 268.964 381.585 269.62 379.021 271.012L402.965 315.12L383.41 325.735ZM370.037 254.199L374.706 251.664C377.379 250.213 377.135 246.577 373.975 240.754C371.927 236.982 370.292 234.67 369.07 233.816C367.848 232.962 366.432 232.973 364.821 233.847L360.316 236.292L370.037 254.199Z" fill="#E91A14"/>
<path d="M456.059 288.185L447.807 177.982L484.576 171.631L513.583 278.25L493.074 281.792L488.513 264.567L475.456 266.822L477.122 284.547L456.059 288.185ZM474.007 249.25L483.861 247.548L469.598 193.246L468.613 193.416L474.007 249.25Z" fill="#E91A14"/>
<path d="M544.161 275.852L561.129 167.168L589.844 171.651C595.855 172.59 600.401 174.67 603.482 177.892C606.605 181.121 608.542 185.324 609.294 190.502C610.046 195.68 609.888 201.686 608.821 208.52C607.793 215.107 606.258 220.75 604.217 225.45C602.183 230.108 599.31 233.518 595.599 235.68C591.929 237.848 587.088 238.463 581.078 237.525L572.247 236.146L565.527 279.187L544.161 275.852ZM575.294 216.633L576.529 216.825C580.563 217.455 583.21 216.709 584.469 214.586C585.728 212.463 586.702 209.199 587.39 204.794C588.032 200.677 588.074 197.437 587.516 195.072C587.005 192.673 585.103 191.216 581.809 190.702L579.401 190.326L575.294 216.633Z" fill="#E91A14"/>
<path d="M626.786 291.23L678.198 193.984L697.536 204.208L679.163 238.962L688.335 243.811L706.709 209.057L726.047 219.28L674.636 316.527L655.297 306.303L678.608 262.211L669.436 257.362L646.125 301.454L626.786 291.23Z" fill="#E91A14"/>
<path d="M700.35 334.872L774.604 253.716L790.282 268.061L716.027 349.217L700.35 334.872Z" fill="#E91A14"/>
<path d="M748.871 388.595C744.505 381.942 743.057 375.217 744.528 368.421C746.021 361.659 750.496 355.833 757.951 350.941L800.38 323.097C809.298 317.245 817.281 314.524 824.327 314.933C831.397 315.377 837.549 319.588 842.784 327.566C845.641 331.92 847.377 336.313 847.992 340.743C848.63 345.209 847.987 349.469 846.062 353.522C844.172 357.553 840.806 361.158 835.964 364.335L820.079 374.759L808.077 356.471L821.663 347.555C824.415 345.749 826.033 344.189 826.516 342.875C827.035 341.539 826.814 340.139 825.854 338.676C824.733 336.969 823.352 336.231 821.709 336.461C820.101 336.669 818.27 337.448 816.214 338.796L770.179 369.006C767.636 370.675 766.082 372.218 765.517 373.635C764.975 375.087 765.161 376.51 766.075 377.903C767.104 379.471 768.469 380.145 770.169 379.927C771.892 379.743 773.782 378.976 775.837 377.628L792.401 366.758L804.54 385.255L787.139 396.674C779.058 401.978 771.85 403.792 765.518 402.116C759.22 400.418 753.671 395.911 748.871 388.595Z" fill="#E91A14"/>
<path d="M794.293 508.737C793.436 498.732 795.309 491.295 799.91 486.427C804.515 481.6 812.256 478.72 823.133 477.789L833.844 476.871L835.699 498.542L822 499.715C819.467 499.932 817.506 500.477 816.117 501.348C814.773 502.258 814.183 503.668 814.347 505.577C814.517 507.57 815.216 508.89 816.442 509.538C817.672 510.227 819.616 510.458 822.273 510.23C825.635 509.942 828.409 509.37 830.594 508.514C832.821 507.654 834.88 506.307 836.772 504.472C838.709 502.675 840.923 500.207 843.414 497.066L851.912 486.427C858.216 478.485 865.831 474.132 874.756 473.368C884.097 472.568 891.402 474.117 896.67 478.015C901.942 481.954 904.93 488.034 905.634 496.254C906.495 506.301 904.427 513.65 899.43 518.301C894.437 522.994 886.482 525.809 875.564 526.744L873.654 504.45L881.189 503.805C882.684 503.677 883.809 503.141 884.565 502.199C885.324 501.297 885.641 500.12 885.517 498.667C885.367 496.923 884.759 495.679 883.692 494.934C882.669 494.227 881.39 493.939 879.854 494.071C878.318 494.202 876.693 494.76 874.979 495.743C873.265 496.726 871.35 498.542 869.235 501.19L858.175 514.871C855.984 517.61 853.63 520.154 851.112 522.502C848.637 524.847 845.669 526.815 842.209 528.408C838.79 529.997 834.528 531.01 829.422 531.448C819.126 532.329 810.888 531.111 804.707 527.793C798.572 524.513 795.1 518.161 794.293 508.737Z" fill="#E91A14"/>
<path d="M790.577 590.14C792.651 581.597 796.81 575.682 803.053 572.395C809.327 569.159 817.343 568.726 827.102 571.095L877.877 583.422C887.028 585.644 893.431 589.557 897.087 595.161C900.733 600.805 901.509 607.94 899.416 616.564C897.322 625.189 893.365 631.153 887.547 634.457C881.718 637.801 874.228 638.362 865.078 636.141L814.303 623.813C804.544 621.444 797.624 617.363 793.543 611.57C789.491 605.827 788.503 598.684 790.577 590.14ZM810.211 595.1C809.425 598.339 812.17 600.721 818.446 602.244L870.618 614.911C875.881 616.189 878.897 615.249 879.663 612.09C880.529 608.527 878.268 606.092 872.883 604.784L820.772 592.133C817.452 591.327 814.965 591.152 813.31 591.608C811.697 592.073 810.664 593.237 810.211 595.1Z" fill="#E91A14"/>
<path d="M760.079 668.813C764.993 661.075 770.774 656.75 777.423 655.839C784.108 654.95 791.671 657.186 800.113 662.546L868.124 705.73L856.666 723.775L789.394 681.06C787.847 680.077 786.296 679.216 784.742 678.476C783.223 677.759 781.806 677.426 780.489 677.478C779.172 677.531 778.068 678.261 777.174 679.668C776.258 681.11 776.039 682.427 776.517 683.618C777.029 684.832 777.962 685.967 779.315 687.024C780.645 688.115 782.084 689.152 783.632 690.135L850.904 732.85L839.446 750.895L771.436 707.711C762.994 702.35 757.753 696.457 755.714 690.029C753.711 683.623 755.165 676.552 760.079 668.813Z" fill="#E91A14"/>
<path d="M727.146 717.972L795.807 803.912L778.131 818.035L737.333 783.191L770.22 824.355L753.618 837.619L684.957 751.679L701.754 738.259L744.679 774.362L710.348 731.393L727.146 717.972Z" fill="#E91A14"/>
<path d="M656.626 770.575L693.011 874.383L664.464 884.389C656.993 887.007 650.639 886.894 645.404 884.049C640.182 881.243 636.172 875.85 633.374 867.867L616.339 819.266C612.894 809.436 611.964 801.24 613.55 794.68C615.097 788.133 620.176 783.351 628.787 780.332L656.626 770.575ZM642.176 796.236L638.578 797.497C634.764 798.834 633.505 801.351 634.8 805.047L653.572 858.603C654.784 862.063 656.035 864.119 657.323 864.771C658.586 865.477 660.633 865.333 663.464 864.341L665.764 863.535L642.176 796.236Z" fill="#E91A14"/>
<path d="M525.019 802.198L497.696 908.751L465.246 900.429L472.943 833.171L447.386 895.85L414.633 887.451L441.956 780.898L461.451 785.897L441.766 862.664L473.68 789.033L492.811 793.939L486.082 874.028L505.767 797.261L525.019 802.198Z" fill="#E91A14"/>
<path d="M385.073 746.458C392.009 751.859 395.693 758.081 396.124 765.123C396.497 772.173 393.598 779.659 387.429 787.582L355.328 828.808C349.542 836.238 343.344 840.468 336.733 841.499C330.088 842.503 323.265 840.28 316.262 834.827C309.26 829.374 305.448 823.317 304.827 816.655C304.173 809.967 306.738 802.908 312.524 795.478L344.625 754.252C350.794 746.329 357.358 741.697 364.317 740.356C371.217 739.022 378.136 741.056 385.073 746.458ZM372.483 762.32C369.853 760.272 366.554 761.796 362.587 766.892L329.602 809.252C326.274 813.526 325.893 816.661 328.457 818.658C331.35 820.91 334.499 819.85 337.904 815.478L370.849 773.167C372.949 770.471 374.13 768.276 374.394 766.58C374.633 764.918 373.996 763.497 372.483 762.32Z" fill="#E91A14"/>
<path d="M334.631 700.57L261.547 751.141L268.979 761.883L251.608 773.903L224.224 734.329L241.595 722.308L249.028 733.05L322.113 682.479L334.631 700.57Z" fill="#E91A14"/>
<path d="M302.789 649.691L200.677 690.595L192.775 670.868L294.887 629.965L302.789 649.691Z" fill="#E91A14"/>
<path d="M282.194 579.52C283.341 588.237 281.596 595.254 276.959 600.571C272.274 605.852 264.954 609.148 254.998 610.458L203.195 617.275C193.859 618.503 186.475 617.164 181.044 613.256C175.607 609.306 172.31 602.932 171.152 594.133C169.994 585.334 171.533 578.344 175.768 573.164C179.998 567.942 186.781 564.717 196.117 563.489L247.92 556.672C257.876 555.362 265.803 556.672 271.699 560.603C277.549 564.498 281.047 570.804 282.194 579.52ZM262.093 581.976C261.658 578.672 258.239 577.44 251.836 578.283L198.607 585.288C193.237 585.994 190.764 587.959 191.188 591.181C191.666 594.816 194.653 596.272 200.147 595.549L253.314 588.553C256.701 588.107 259.084 587.374 260.462 586.352C261.8 585.335 262.343 583.877 262.093 581.976Z" fill="#E91A14"/>
<path d="M275.994 519.792L168.267 497.544L172.843 475.387L226.489 476.127L174.891 465.471L179.188 444.66L286.915 466.907L282.567 487.963L226.479 487.612L280.342 498.736L275.994 519.792Z" fill="#E91A14"/>
</g>
</svg>
