<?xml version="1.0" encoding="UTF-8"?>
<svg id="Logo_Dark_OG" data-name="Logo Dark OG" xmlns="http://www.w3.org/2000/svg" viewBox="0 0 163.11 163.11">
  <rect width="163.11" height="163.11" style="fill: #343e3d;"/>
  <g>
    <polygon points="24.46 55.91 19.27 69.39 25.05 105.39 53.05 97.54 52.31 48.95 24.46 55.91" style="fill: #ff00de;"/>
    <g id="Generative_Object" data-name="Generative Object">
      <path d="M23.59,84.56c.71-.21.79.9.08,1.14-.02-.29-.06-.91-.08-1.14Z" style="fill: #ff7bac;"/>
      <path d="M23.73,86.61c.68-.17.73.84.07,1.08-.02-.26-.06-.88-.07-1.08Z" style="fill: #ff7bac;"/>
      <path d="M23.52,83.64c-.02-.25-.05-.69-.06-.92.77-.35.85.79.06.92Z" style="fill: #ff7bac;"/>
      <path d="M23.29,80.19c.62-.11.66.77.08,1.1-.02-.26-.06-.88-.08-1.1Z" style="fill: #ff7bac;"/>
      <path d="M51.03,74.41c0,.24.02.56.03.77-.85.39-.93-.69-.03-.77Z" style="fill: #ff7bac;"/>
      <g>
        <path d="M46.92,74.91c.2-.06.59.1.65.31.13.5-.29.94-.29.99,0,.02.2.14.23.29.15.79-.75,1.44-1.12.88-.35-.51.17-.95.18-1.07,0-.04-.22-.23-.23-.29-.08-.38.18-.98.59-1.11Z" style="fill: #ff7bac;"/>
        <path d="M31.45,84.18c.25-.14.66-.05.74.21s-.09.64-.07.66c.03.03.69-.24.82.22.24.84-.94,1.47-1.09.62-.03-.14.09-.48.08-.49-.03-.04-.36.1-.51.07-.46-.09-.43-1.04.03-1.29Z" style="fill: #ff7bac;"/>
        <path d="M32.94,83.85c.27-.18.67-.09.74.21.04.21-.09.53-.08.55.05.05.96-.31.79.69-.1.58-.94.78-1.06.21-.05-.22.09-.53.08-.55-.02-.03-.5.12-.65-.15-.13-.23-.08-.8.19-.96Z" style="fill: #ff7bac;"/>
        <path d="M29.33,80.31c1.32-.69,1.11,1.75-.13,1.4-.52-.15-.39-1.12.13-1.4Z" style="fill: #ff7bac;"/>
        <path d="M27.39,80.98c.92-.54,1.2.85.51,1.25-.97.57-1.2-.85-.51-1.25Z" style="fill: #ff7bac;"/>
        <path d="M29.42,82.64c.95-.55,1.18.87.51,1.25-.92.52-1.14-.89-.51-1.25Z" style="fill: #ff7bac;"/>
        <path d="M28.46,81.82c1-.49,1.1,1.35.03,1.4-.55.02-.63-1.11-.03-1.4Z" style="fill: #ff7bac;"/>
        <path d="M39.32,86.06c1.11-.59,1.04,1.52-.04,1.35-.54-.08-.44-1.09.04-1.35Z" style="fill: #ff7bac;"/>
        <path d="M28.27,79.58c1.12-.69,1.11,1.51.03,1.35-.5-.07-.47-1.08-.03-1.35Z" style="fill: #ff7bac;"/>
        <path d="M41.3,85.46c.77-.36,1.02.86.44,1.21-.95.57-1.2-.86-.44-1.21Z" style="fill: #ff7bac;"/>
        <path d="M34.06,70.09c.97-.59,1.14.82.5,1.17-.93.51-1.12-.8-.5-1.17Z" style="fill: #ff7bac;"/>
        <path d="M29.66,84.73c1.02-.5.98,1.49-.08,1.31-.47-.08-.42-1.06.08-1.31Z" style="fill: #ff7bac;"/>
        <path d="M38.66,69.65c1.13-.56.87,1.69-.15,1.32-.44-.16-.35-1.07.15-1.32Z" style="fill: #ff7bac;"/>
        <path d="M30.17,78.99c.89-.53,1.02.86.45,1.22-.75.47-1.08-.85-.45-1.22Z" style="fill: #ff7bac;"/>
        <path d="M30.62,85.55c.91-.51,1.04.93.34,1.23s-.98-.88-.34-1.23Z" style="fill: #ff7bac;"/>
        <path d="M30.26,81.32c.84-.48,1.08.86.45,1.21-.8.44-1.02-.89-.45-1.21Z" style="fill: #ff7bac;"/>
        <path d="M40.46,69.08c1.11-.61.92,1.64-.1,1.31-.5-.16-.35-1.06.1-1.31Z" style="fill: #ff7bac;"/>
        <path d="M35.2,70.76c.83-.4.98.98.29,1.3-.81.37-.97-.97-.29-1.3Z" style="fill: #ff7bac;"/>
        <path d="M40.34,86.86c1.05-.48.93,1.43-.1,1.25-.47-.08-.41-1.02.1-1.25Z" style="fill: #ff7bac;"/>
        <path d="M29.25,78.15c.8-.38.96.97.29,1.27-.79.36-.93-.97-.29-1.27Z" style="fill: #ff7bac;"/>
        <path d="M45.78,74.12c.89-.57,1.1.97.33,1.28s-.85-.95-.33-1.28Z" style="fill: #ff7bac;"/>
        <path d="M28.6,84.01c.82-.43,1.02.98.29,1.25s-.86-.96-.29-1.25Z" style="fill: #ff7bac;"/>
        <path d="M39.43,68.38c.91-.53,1.1.92.34,1.23s-.89-.91-.34-1.23Z" style="fill: #ff7bac;"/>
        <path d="M45.98,77.59c.83-.38.94,1.04.22,1.3s-.88-1-.22-1.3Z" style="fill: #ff7bac;"/>
        <path d="M47.64,73.6c.89-.51,1.03.89.38,1.21-.76.37-1.01-.84-.38-1.21Z" style="fill: #ff7bac;"/>
        <path d="M28.18,77.41c.99-.56.97,1.44-.03,1.26-.45-.08-.42-1,.03-1.26Z" style="fill: #ff7bac;"/>
        <path d="M48.84,74.49c.78-.32.98.82.32,1.16-.88.46-1.1-.84-.32-1.16Z" style="fill: #ff7bac;"/>
        <path d="M47.83,77.02c.75-.3.88.92.27,1.23-.8.41-1.02-.93-.27-1.23Z" style="fill: #ff7bac;"/>
        <path d="M28.78,86.11c.75-.34.9.86.34,1.17-.79.44-.97-.89-.34-1.17Z" style="fill: #ff7bac;"/>
        <path d="M43.38,73.73c.85-.48.95.92.33,1.22-.74.35-.93-.88-.33-1.22Z" style="fill: #ff7bac;"/>
        <path d="M46.89,78.44c.75-.34.91.89.32,1.21-.83.45-.98-.91-.32-1.21Z" style="fill: #ff7bac;"/>
        <path d="M46.61,72.78c.99-.64,1.13,1.2.11,1.23-.48.02-.5-.98-.11-1.23Z" style="fill: #ff7bac;"/>
        <path d="M29.23,75.95c.59-.18.84.89.24,1.24-.85.48-.98-1.01-.24-1.24Z" style="fill: #ff7bac;"/>
        <path d="M44.96,73.23c.96-.52.91,1.46-.06,1.28-.47-.08-.37-1.05.06-1.28Z" style="fill: #ff7bac;"/>
        <path d="M43.69,79.43c.82-.4.91.94.27,1.22-.71.32-.9-.91-.27-1.22Z" style="fill: #ff7bac;"/>
        <path d="M45.79,71.88c1.03-.53.84,1.59-.11,1.24-.42-.16-.33-1.02.11-1.24Z" style="fill: #ff7bac;"/>
        <path d="M29.74,86.92c1.02-.58.96,1.33.02,1.15-.41-.07-.45-.91-.02-1.15Z" style="fill: #ff7bac;"/>
        <path d="M37.69,68.93c.91-.51,1.01,1.25.01,1.27-.49.01-.51-.99-.01-1.27Z" style="fill: #ff7bac;"/>
        <path d="M30.75,87.66c.92-.51,1,1.14.07,1.19-.47.02-.53-.94-.07-1.19Z" style="fill: #ff7bac;"/>
        <path d="M32.46,72.71c.87-.31.74,1.49-.14,1.31-.48-.1-.39-1.12.14-1.31Z" style="fill: #ff7bac;"/>
        <path d="M48.86,77.84c1.05-.53.85,1.34-.06,1.21-.46-.06-.44-.95.06-1.21Z" style="fill: #ff7bac;"/>
        <path d="M49.8,76.41c1.12-.68,1.17,1.05.1,1.11-.47.02-.52-.85-.1-1.11Z" style="fill: #ff7bac;"/>
        <path d="M33.2,69.33c.88-.42.97,1.21.02,1.27-.49.03-.55-1.02-.02-1.27Z" style="fill: #ff7bac;"/>
        <path d="M45.21,78.96c.8-.41.92.94.27,1.22-.72.31-.83-.93-.27-1.22Z" style="fill: #ff7bac;"/>
        <path d="M27.3,78.82c.83-.44.99,1.18.03,1.23-.51.03-.48-.99-.03-1.23Z" style="fill: #ff7bac;"/>
        <path d="M47.97,79.18c.7-.25.8.87.27,1.17-.88.49-1.01-.9-.27-1.17Z" style="fill: #ff7bac;"/>
        <path d="M37.52,86.66c.77-.43.96.79.38,1.11-.79.43-.9-.81-.38-1.11Z" style="fill: #ff7bac;"/>
        <path d="M30.82,75.45c.88-.52,1.03,1.18.07,1.23-.48.03-.5-.98-.07-1.23Z" style="fill: #ff7bac;"/>
        <path d="M30.09,76.81c.95-.54.93,1.4-.04,1.2-.42-.09-.38-.97.04-1.2Z" style="fill: #ff7bac;"/>
        <path d="M48.8,72.09c.85-.3.79,1.43-.17,1.26-.5-.09-.39-1.06.17-1.26Z" style="fill: #ff7bac;"/>
        <path d="M44.1,72.42c.81-.45.97.82.38,1.15-.74.41-.97-.82-.38-1.15Z" style="fill: #ff7bac;"/>
        <path d="M41.5,69.97c1.12-.65.86,1.52-.06,1.17-.38-.14-.36-.93.06-1.17Z" style="fill: #ff7bac;"/>
        <path d="M34.43,85.49c.8-.45.9.82.38,1.11-.75.42-.93-.8-.38-1.11Z" style="fill: #ff7bac;"/>
        <path d="M27.16,76.66c.73-.41.95.82.34,1.14-.73.38-.93-.82-.34-1.14Z" style="fill: #ff7bac;"/>
        <path d="M49.79,73.05c1.04-.6,1.06,1.18.04,1.13-.5-.02-.49-.87-.04-1.13Z" style="fill: #ff7bac;"/>
        <path d="M28.2,75.2c.62-.19.79.97.19,1.25-.75.36-.89-1.03-.19-1.25Z" style="fill: #ff7bac;"/>
        <path d="M28.92,88.22c.71-.38.94.79.34,1.11-.71.38-.92-.8-.34-1.11Z" style="fill: #ff7bac;"/>
        <path d="M34.11,68.01c1.03-.61,1,1.33,0,1.15-.42-.07-.45-.89,0-1.15Z" style="fill: #ff7bac;"/>
        <path d="M43.04,80.69c.68-.25.8.95.22,1.23-.79.38-.85-1-.22-1.23Z" style="fill: #ff7bac;"/>
        <path d="M42.52,70.67c.93-.39.78,1.49-.16,1.26-.42-.1-.32-1.06.16-1.26Z" style="fill: #ff7bac;"/>
        <path d="M26.37,80.29c.78-.45.9.82.39,1.11-.75.44-.9-.82-.39-1.11Z" style="fill: #ff7bac;"/>
        <path d="M31.45,74.17c.96-.63,1,1.4.02,1.19-.38-.08-.35-.98-.02-1.19Z" style="fill: #ff7bac;"/>
        <path d="M27.54,83.34c.87-.49,1.04,1.1.07,1.15-.46.02-.52-.9-.07-1.15Z" style="fill: #ff7bac;"/>
        <path d="M43.39,71.49c.7-.28.82,1,.17,1.28-.7.29-.82-1.01-.17-1.28Z" style="fill: #ff7bac;"/>
        <path d="M35.14,68.77c.87-.54.98.78.44,1.07-.75.41-.99-.74-.44-1.07Z" style="fill: #ff7bac;"/>
        <path d="M47.71,71.28c.9-.35.75,1.49-.17,1.26-.42-.1-.34-1.07.17-1.26Z" style="fill: #ff7bac;"/>
        <path d="M44.87,71.08c.99-.56.9,1.36,0,1.21-.42-.07-.45-.96,0-1.21Z" style="fill: #ff7bac;"/>
        <path d="M46.63,70.53c.82-.47.96.89.33,1.17-.71.31-.88-.85-.33-1.17Z" style="fill: #ff7bac;"/>
        <path d="M35.23,86.3c.92-.49.84,1.37-.04,1.18-.43-.09-.39-.95.04-1.18Z" style="fill: #ff7bac;"/>
        <path d="M27.78,85.37c.7-.3.84.84.29,1.14-.72.39-.91-.86-.29-1.14Z" style="fill: #ff7bac;"/>
        <path d="M46.18,79.73c.86-.31.74,1.42-.17,1.24-.43-.09-.34-1.05.17-1.24Z" style="fill: #ff7bac;"/>
        <path d="M33.01,85.93c.93-.55.9,1.32.01,1.16-.42-.07-.41-.93-.01-1.16Z" style="fill: #ff7bac;"/>
        <path d="M27.13,74.46c.62-.25.83.86.29,1.16-.83.47-.91-.91-.29-1.16Z" style="fill: #ff7bac;"/>
        <path d="M29.04,73.86c.67-.28.81.87.29,1.17-.76.43-.95-.89-.29-1.17Z" style="fill: #ff7bac;"/>
        <path d="M32.33,87.18c.74-.4.9.83.33,1.12-.71.37-.86-.84-.33-1.12Z" style="fill: #ff7bac;"/>
        <path d="M44.55,80.23c.84-.35.79,1.27-.05,1.26-.47,0-.47-1.04.05-1.26Z" style="fill: #ff7bac;"/>
        <path d="M31.58,86.36c.94-.52.85,1.29.02,1.16-.41-.06-.45-.92-.02-1.16Z" style="fill: #ff7bac;"/>
        <path d="M46.98,80.61c.79-.43.92.77.37,1.07-.79.43-.92-.77-.37-1.07Z" style="fill: #ff7bac;"/>
        <path d="M29.91,74.72c.79-.51.99.73.44,1.06-.77.46-.89-.77-.44-1.06Z" style="fill: #ff7bac;"/>
        <path d="M33.81,86.73c.74-.39.85.87.28,1.14-.65.3-.87-.82-.28-1.14Z" style="fill: #ff7bac;"/>
        <path d="M40.47,67.01c.83-.29.69,1.41-.16,1.27-.5-.08-.39-1.08.16-1.27Z" style="fill: #ff7bac;"/>
        <path d="M41.24,87.69c.84-.45.98,1.01.11,1.13-.53.07-.62-.86-.11-1.13Z" style="fill: #ff7bac;"/>
        <path d="M27.86,87.5c.91-.52.88,1.28.02,1.15-.43-.06-.41-.93-.02-1.15Z" style="fill: #ff7bac;"/>
        <path d="M44.16,70.16c.79-.28.75,1.44-.17,1.26-.46-.09-.36-1.08.17-1.26Z" style="fill: #ff7bac;"/>
        <path d="M43.79,81.59c.98-.52.73,1.51-.11,1.15-.4-.17-.3-.94.11-1.15Z" style="fill: #ff7bac;"/>
        <path d="M49,80c.76-.37.84.8.32,1.09-.77.42-.96-.78-.32-1.09Z" style="fill: #ff7bac;"/>
        <path d="M27.97,73.12c.71-.36.89.88.29,1.17-.71.34-.84-.89-.29-1.17Z" style="fill: #ff7bac;"/>
        <path d="M45.3,81.13c.75-.4.94.75.37,1.07-.78.43-.92-.77-.37-1.07Z" style="fill: #ff7bac;"/>
        <path d="M30.75,73.31c.74-.41.86.88.34,1.15-.7.37-.88-.85-.34-1.15Z" style="fill: #ff7bac;"/>
        <path d="M36.14,87.08c.81-.27.67,1.38-.15,1.21-.45-.1-.35-1.04.15-1.21Z" style="fill: #ff7bac;"/>
        <path d="M38.37,87.51c.77-.49.99.72.38,1.05-.71.38-.82-.77-.38-1.05Z" style="fill: #ff7bac;"/>
        <path d="M45.7,69.73c.99-.58.91,1.34,0,1.16-.38-.08-.41-.91,0-1.16Z" style="fill: #ff7bac;"/>
        <path d="M38.72,67.57c.65-.23.77.82.28,1.13-.82.51-1-.87-.28-1.13Z" style="fill: #ff7bac;"/>
        <path d="M26.8,86.77c.67-.39.95.73.39,1.04-.74.41-.89-.75-.39-1.04Z" style="fill: #ff7bac;"/>
        <path d="M41.28,67.84c.8-.52.97.77.38,1.1-.72.4-.86-.79-.38-1.1Z" style="fill: #ff7bac;"/>
        <path d="M43.13,69.45c1-.62.91,1.34,0,1.15-.37-.07-.38-.92,0-1.15Z" style="fill: #ff7bac;"/>
        <path d="M26.61,84.73c.69-.44,1.01.55.49.96-.67.53-1-.63-.49-.96Z" style="fill: #ff7bac;"/>
        <path d="M48.61,69.91c1.03-.6.87,1.49-.07,1.11-.36-.15-.3-.9.07-1.11Z" style="fill: #ff7bac;"/>
        <path d="M26.14,75.91c.73-.39.82.8.34,1.08-.69.4-.94-.77-.34-1.08Z" style="fill: #ff7bac;"/>
        <path d="M31.49,72c.72-.33.83.98.18,1.21s-.74-.95-.18-1.21Z" style="fill: #ff7bac;"/>
        <path d="M44.59,82.4c.95-.51.82,1.36-.06,1.14-.36-.09-.36-.92.06-1.14Z" style="fill: #ff7bac;"/>
        <path d="M46.21,81.91c.91-.48.86,1.33-.06,1.14-.39-.08-.35-.92.06-1.14Z" style="fill: #ff7bac;"/>
        <path d="M48.06,81.35c.64-.32.9.77.32,1.08-.79.43-.9-.79-.32-1.08Z" style="fill: #ff7bac;"/>
        <path d="M42.26,68.63c.79-.46.94.79.38,1.1-.71.39-.88-.81-.38-1.1Z" style="fill: #ff7bac;"/>
        <path d="M26.05,73.73c.9-.37.66,1.53-.14,1.18-.4-.17-.27-1.01.14-1.18Z" style="fill: #ff7bac;"/>
        <path d="M34.66,87.52c.77-.28.7,1.33-.09,1.19-.49-.09-.37-1.02.09-1.19Z" style="fill: #ff7bac;"/>
        <path d="M26.23,78.08c.88-.53.9,1.28.02,1.12-.43-.08-.4-.89-.02-1.12Z" style="fill: #ff7bac;"/>
        <path d="M37.09,68.09c.8-.22.64,1.4-.21,1.22-.45-.09-.34-1.07.21-1.22Z" style="fill: #ff7bac;"/>
        <path d="M29.05,90.31c.74-.43.9.77.33,1.05-.6.3-.86-.75-.33-1.05Z" style="fill: #ff7bac;"/>
        <path d="M29.93,89.01c.92-.51.83,1.24.01,1.09-.39-.07-.42-.87-.01-1.09Z" style="fill: #ff7bac;"/>
        <path d="M30.88,89.76c.71-.38.85.78.33,1.05-.68.36-.86-.77-.33-1.05Z" style="fill: #ff7bac;"/>
        <path d="M47.57,69.14c.69-.42.96.6.49,1-.72.61-1.06-.66-.49-1Z" style="fill: #ff7bac;"/>
        <path d="M36.83,87.97c.73-.39.87.79.33,1.06-.65.32-.88-.77-.33-1.06Z" style="fill: #ff7bac;"/>
        <path d="M43.14,82.85c.82-.3.71,1.35-.16,1.17-.44-.09-.29-1,.16-1.17Z" style="fill: #ff7bac;"/>
        <path d="M26.94,88.88c.73-.47.96.66.43.97-.73.43-.88-.68-.43-.97Z" style="fill: #ff7bac;"/>
        <path d="M44.78,68.93c.95-.61.93,1.29.05,1.14-.42-.07-.42-.9-.05-1.14Z" style="fill: #ff7bac;"/>
        <path d="M29.83,72.58c.72-.41.86.81.34,1.09-.67.36-.89-.78-.34-1.09Z" style="fill: #ff7bac;"/>
        <path d="M25.3,79.5c.74-.43.92.83.29,1.09-.6.24-.79-.8-.29-1.09Z" style="fill: #ff7bac;"/>
        <path d="M26.94,72.36c.78-.41.88,1.11.08,1.18-.51.04-.52-.94-.08-1.18Z" style="fill: #ff7bac;"/>
        <path d="M49.99,78.62c.93-.53.97.93.15,1.08-.52.1-.6-.83-.15-1.08Z" style="fill: #ff7bac;"/>
        <path d="M24.28,78.7c.63-.26.78.82.24,1.11-.7.37-.86-.85-.24-1.11Z" style="fill: #ff7bac;"/>
        <path d="M26.47,82.61c.94-.61.93,1.24.02,1.05-.37-.08-.32-.85-.02-1.05Z" style="fill: #ff7bac;"/>
        <path d="M24.14,76.54c.64-.24.76.88.18,1.13-.69.31-.79-.9-.18-1.13Z" style="fill: #ff7bac;"/>
        <path d="M27.99,89.6c.91-.58.94,1.23.01,1.03-.37-.08-.32-.84-.01-1.03Z" style="fill: #ff7bac;"/>
        <path d="M45.5,83.19c.84-.37.75,1.28-.06,1.13-.44-.08-.42-.92.06-1.13Z" style="fill: #ff7bac;"/>
        <path d="M35.3,88.43c.77-.47.92.84.27,1.08-.59.21-.71-.8-.27-1.08Z" style="fill: #ff7bac;"/>
        <path d="M43.94,83.66c.68-.28.78.85.21,1.11-.69.32-.8-.87-.21-1.11Z" style="fill: #ff7bac;"/>
        <path d="M33.08,88.06c.9-.57.91,1.09.06,1.08-.38,0-.43-.85-.06-1.08Z" style="fill: #ff7bac;"/>
        <path d="M42.17,84.26c.93-.53.88,1.22,0,1.06-.41-.07-.38-.83,0-1.06Z" style="fill: #ff7bac;"/>
        <path d="M49.86,70.67c.62-.23.8.75.32,1.05-.83.51-1.02-.79-.32-1.05Z" style="fill: #ff7bac;"/>
        <path d="M33.87,88.86c.73-.41.88.88.22,1.09-.56.18-.71-.82-.22-1.09Z" style="fill: #ff7bac;"/>
        <path d="M43.91,68.11c.8-.51.94.88.27,1.13-.58.22-.73-.84-.27-1.13Z" style="fill: #ff7bac;"/>
        <path d="M24.77,87.45c.73-.42.91.73.33,1-.62.29-.84-.7-.33-1Z" style="fill: #ff7bac;"/>
        <path d="M31.66,88.49c.71-.44.9.68.43.97-.69.44-.92-.66-.43-.97Z" style="fill: #ff7bac;"/>
        <path d="M32.4,89.31c.8-.49.96,1.04.06,1.08-.43.02-.41-.87-.06-1.08Z" style="fill: #ff7bac;"/>
        <path d="M25.6,83.99c.76-.43.83.75.33,1.01-.63.32-.88-.7-.33-1.01Z" style="fill: #ff7bac;"/>
        <path d="M32.29,70.72c.89-.49.86,1.31-.05,1.1-.37-.09-.33-.89.05-1.1Z" style="fill: #ff7bac;"/>
        <path d="M46.65,68.34c.7-.41.89.74.38,1.04-.76.44-.91-.73-.38-1.04Z" style="fill: #ff7bac;"/>
        <path d="M25.02,75.19c.69-.39.85.72.39,1.01-.68.42-.95-.69-.39-1.01Z" style="fill: #ff7bac;"/>
        <path d="M25.11,77.37c.9-.63.96,1.2.07,1.05-.4-.07-.38-.83-.07-1.05Z" style="fill: #ff7bac;"/>
        <path d="M47.29,82.65c.79-.28.67,1.29-.12,1.15-.48-.09-.36-.98.12-1.15Z" style="fill: #ff7bac;"/>
        <path d="M23.84,74.49c.74-.49.96.74.34,1.03-.66.31-.75-.76-.34-1.03Z" style="fill: #ff7bac;"/>
        <path d="M30.63,71.25c.74-.44.84.74.39,1.02-.67.42-.92-.7-.39-1.02Z" style="fill: #ff7bac;"/>
        <path d="M43.04,67.29c.87-.56.95,1.15.05,1.14-.39,0-.43-.9-.05-1.14Z" style="fill: #ff7bac;"/>
        <path d="M27.78,71.07c.75-.5.94.72.39,1.02-.66.37-.83-.73-.39-1.02Z" style="fill: #ff7bac;"/>
        <path d="M39.38,88.31c.8-.41.86,1.02.05,1.08-.47.04-.51-.85-.05-1.08Z" style="fill: #ff7bac;"/>
        <path d="M24.96,89.47c.66-.35.85.71.33.99-.68.37-.84-.72-.33-.99Z" style="fill: #ff7bac;"/>
        <path d="M25.74,86.05c.86-.47.81,1.24-.04,1.06-.38-.08-.34-.85.04-1.06Z" style="fill: #ff7bac;"/>
        <path d="M36.17,67.41c.75-.49.95.74.39,1.03-.68.36-.86-.73-.39-1.03Z" style="fill: #ff7bac;"/>
        <path d="M37.8,66.88c.94-.62.98,1.11.11,1.06-.47-.02-.44-.84-.11-1.06Z" style="fill: #ff7bac;"/>
        <path d="M39.65,66.23c.74-.31.83,1.13-.05,1.18-.47.02-.44-.97.05-1.18Z" style="fill: #ff7bac;"/>
        <path d="M28.81,71.83c.71-.46.94.72.39,1.02-.68.38-.81-.74-.39-1.02Z" style="fill: #ff7bac;"/>
        <path d="M36.15,89.22c.64-.32.85.7.32,1-.71.4-.83-.75-.32-1Z" style="fill: #ff7bac;"/>
        <path d="M42.21,86.35c.69-.38.86.73.32,1.01-.65.34-.84-.72-.32-1.01Z" style="fill: #ff7bac;"/>
        <path d="M24.92,73.01c.61-.31.82.75.34,1.03-.75.44-.87-.76-.34-1.03Z" style="fill: #ff7bac;"/>
        <path d="M24.63,85.34c.88-.5.83,1.18.02,1.04-.4-.06-.38-.83-.02-1.04Z" style="fill: #ff7bac;"/>
        <path d="M25.46,81.87c.89-.53.9,1.05.07,1.04-.33,0-.49-.78-.07-1.04Z" style="fill: #ff7bac;"/>
        <path d="M45.72,67.53c.93-.56.83,1.28,0,1.1-.37-.08-.36-.88,0-1.1Z" style="fill: #ff7bac;"/>
        <path d="M42.17,66.46c.67-.35.83.76.33,1.06-.72.42-.86-.77-.33-1.06Z" style="fill: #ff7bac;"/>
        <path d="M44.8,66.72c.92-.57.84,1.28,0,1.1-.37-.08-.35-.88,0-1.1Z" style="fill: #ff7bac;"/>
        <path d="M25.81,71.7c.72-.48.9.65.44.94-.71.44-.9-.64-.44-.94Z" style="fill: #ff7bac;"/>
        <path d="M37.63,88.83c.94-.59.87,1.17,0,.98-.37-.08-.32-.78,0-.98Z" style="fill: #ff7bac;"/>
        <path d="M27.23,90.86c.62-.3.79.74.28,1.01-.68.36-.8-.76-.28-1.01Z" style="fill: #ff7bac;"/>
        <path d="M34.72,89.65c.58-.24.77.74.27,1.02-.69.39-.86-.77-.27-1.02Z" style="fill: #ff7bac;"/>
        <path d="M31.37,69.92c.65-.33.8.77.28,1.06-.7.39-.79-.8-.28-1.06Z" style="fill: #ff7bac;"/>
        <path d="M44.69,84.55c.99-.56.72,1.37-.06,1.01-.3-.14-.29-.81.06-1.01Z" style="fill: #ff7bac;"/>
        <path d="M43.87,65.92c.99-.57.75,1.45-.06,1.06-.31-.15-.3-.85.06-1.06Z" style="fill: #ff7bac;"/>
        <path d="M43.07,85.04c.88-.52.81,1.22,0,1.05-.36-.07-.35-.85,0-1.05Z" style="fill: #ff7bac;"/>
        <path d="M46.36,84.05c.85-.52.92,1.05.04,1.04-.38,0-.41-.82-.04-1.04Z" style="fill: #ff7bac;"/>
        <path d="M28.33,91.57c.54-.17.71.75.22,1.02-.69.38-.85-.83-.22-1.02Z" style="fill: #ff7bac;"/>
        <path d="M43.93,85.83c.87-.44.75,1.18,0,1.05-.42-.07-.41-.84,0-1.05Z" style="fill: #ff7bac;"/>
        <path d="M33.08,67.3c.66-.39.89.68.38.97-.73.43-.89-.67-.38-.97Z" style="fill: #ff7bac;"/>
        <path d="M29.76,70.43c.62-.3.78.77.28,1.06-.69.4-.82-.8-.28-1.06Z" style="fill: #ff7bac;"/>
        <path d="M33.15,90.18c.85-.56.92.96.11,1-.4.02-.41-.8-.11-1Z" style="fill: #ff7bac;"/>
        <path d="M37.05,89.99c.6-.21.67.79.22,1.03-.65.34-.87-.81-.22-1.03Z" style="fill: #ff7bac;"/>
        <path d="M41.19,65.74c.93-.62.89,1.27,0,1.04-.35-.09-.31-.84,0-1.04Z" style="fill: #ff7bac;"/>
        <path d="M31.73,90.6c.69-.44.9.63.37.92-.63.35-.8-.65-.37-.92Z" style="fill: #ff7bac;"/>
        <path d="M48.63,67.71c.83-.53.93,1.09.04,1.09-.39,0-.42-.85-.04-1.09Z" style="fill: #ff7bac;"/>
        <path d="M49.19,82.13c.76-.37.81,1.1-.07,1.08-.42,0-.35-.88.07-1.08Z" style="fill: #ff7bac;"/>
        <path d="M40.28,89.08c.69-.36.86.72.26.96s-.78-.69-.26-.96Z" style="fill: #ff7bac;"/>
        <path d="M26.86,70.22c.6-.26.77.81.23,1.07-.68.33-.75-.84-.23-1.07Z" style="fill: #ff7bac;"/>
        <path d="M29.18,92.4c.73-.47.86.66.38.92-.6.31-.79-.65-.38-.92Z" style="fill: #ff7bac;"/>
        <path d="M35.25,66.61c.72-.37.88,1.05,0,1.1-.45.02-.42-.88,0-1.1Z" style="fill: #ff7bac;"/>
        <path d="M33.94,90.98c.88-.51.8,1.15,0,.98-.35-.08-.35-.77,0-.98Z" style="fill: #ff7bac;"/>
        <path d="M35.36,90.55c.93-.59.84,1.13.05.96-.33-.07-.36-.77-.05-.96Z" style="fill: #ff7bac;"/>
        <path d="M47.65,66.92c.81-.52.93,1,.1,1.07-.45.04-.46-.84-.1-1.07Z" style="fill: #ff7bac;"/>
        <path d="M30.06,91.11c.68-.38.84.67.32.94-.59.3-.8-.67-.32-.94Z" style="fill: #ff7bac;"/>
        <path d="M46.67,66.13c.72-.49.92.68.38.98-.69.38-.76-.72-.38-.98Z" style="fill: #ff7bac;"/>
        <path d="M45.74,65.32c.93-.57.8,1.21-.01,1.05-.36-.07-.34-.83.01-1.05Z" style="fill: #ff7bac;"/>
        <path d="M42.94,65.11c.86-.46.77,1.26-.06,1.06-.38-.09-.3-.86.06-1.06Z" style="fill: #ff7bac;"/>
        <path d="M30.95,91.87c.87-.48.76,1.14,0,.97-.33-.07-.37-.77,0-.97Z" style="fill: #ff7bac;"/>
        <path d="M32.11,68.65c.63-.4.88.67.38.97-.66.4-.86-.67-.38-.97Z" style="fill: #ff7bac;"/>
        <path d="M43.06,87.2c.97-.57.71,1.33-.06.95-.29-.14-.26-.76.06-.95Z" style="fill: #ff7bac;"/>
        <path d="M48.31,83.46c.86-.44.71,1.19-.07,1.02-.39-.08-.3-.83.07-1.02Z" style="fill: #ff7bac;"/>
        <path d="M45.59,85.33c.76-.39.82,1,.04,1.04-.42.02-.47-.82-.04-1.04Z" style="fill: #ff7bac;"/>
        <path d="M42.2,88.51c.83-.46.88.94.05.97-.4.01-.43-.76-.05-.97Z" style="fill: #ff7bac;"/>
        <path d="M32.47,91.42c.88-.55.78,1.2,0,.97-.32-.09-.31-.78,0-.97Z" style="fill: #ff7bac;"/>
        <path d="M25.93,88.14c.59-.3.78.67.33.94-.64.38-.85-.67-.33-.94Z" style="fill: #ff7bac;"/>
        <path d="M44.78,86.69c.72-.42.79.62.42.87-.67.44-.94-.56-.42-.87Z" style="fill: #ff7bac;"/>
        <path d="M24.54,83.27c.61-.31.81.7.28.97-.63.31-.77-.71-.28-.97Z" style="fill: #ff7bac;"/>
        <path d="M30.45,69.18c.96-.61.74,1.38-.05.99-.29-.15-.24-.8.05-.99Z" style="fill: #ff7bac;"/>
        <path d="M38.48,89.62c.74-.46.84.75.26.96s-.69-.7-.26-.96Z" style="fill: #ff7bac;"/>
        <path d="M49.67,68.54c.87-.6.98,1.01.09,1.01-.35,0-.43-.77-.09-1.01Z" style="fill: #ff7bac;"/>
        <path d="M24.39,81.03c.67-.41.85.61.38.88-.64.36-.83-.61-.38-.88Z" style="fill: #ff7bac;"/>
        <path d="M37.15,66.05c.65-.44.95.58.43.9-.73.45-.81-.65-.43-.9Z" style="fill: #ff7bac;"/>
        <path d="M40.42,64.94c.66-.43.85.62.43.9-.71.49-.91-.59-.43-.9Z" style="fill: #ff7bac;"/>
        <path d="M47.48,84.76c.78-.38.72,1.18-.07,1.02-.39-.08-.3-.84.07-1.02Z" style="fill: #ff7bac;"/>
        <path d="M46.61,86.14c.89-.52.79,1.11-.02.94-.34-.07-.34-.73.02-.94Z" style="fill: #ff7bac;"/>
        <path d="M43.97,87.98c.75-.41.87.94.04.97-.4.02-.43-.76-.04-.97Z" style="fill: #ff7bac;"/>
        <path d="M44.7,64.54c.85-.55.9,1.05.04,1.03-.32,0-.38-.81-.04-1.03Z" style="fill: #ff7bac;"/>
        <path d="M28.78,69.66c.6-.3.73.75.28,1-.64.35-.79-.75-.28-1Z" style="fill: #ff7bac;"/>
        <path d="M26.07,90.23c.6-.36.86.58.38.86-.62.36-.82-.59-.38-.86Z" style="fill: #ff7bac;"/>
        <path d="M38.79,65.53c.71-.47.87.64.38.92-.66.38-.77-.66-.38-.92Z" style="fill: #ff7bac;"/>
        <path d="M45.79,87.43c.59-.29.79.62.31.9-.71.41-.8-.65-.31-.9Z" style="fill: #ff7bac;"/>
        <path d="M27.36,92.95c.75-.41.78,1,.01.97-.31-.01-.39-.76-.01-.97Z" style="fill: #ff7bac;"/>
        <path d="M41.29,89.82c.86-.53.79,1.07,0,.93-.37-.07-.28-.75,0-.93Z" style="fill: #ff7bac;"/>
        <path d="M42.01,64.36c.91-.59.78,1.21-.01.99-.3-.09-.28-.8.01-.99Z" style="fill: #ff7bac;"/>
        <path d="M31.9,92.62c.59-.3.73.63.32.88-.63.38-.81-.63-.32-.88Z" style="fill: #ff7bac;"/>
        <path d="M43.77,63.74c.83-.48.78,1.15-.01.99-.35-.07-.37-.77.01-.99Z" style="fill: #ff7bac;"/>
        <path d="M34.73,91.78c.72-.44.82.96.05.96-.36,0-.4-.75-.05-.96Z" style="fill: #ff7bac;"/>
        <path d="M27.7,68.91c.83-.51.76,1.15,0,.97-.34-.08-.32-.78,0-.97Z" style="fill: #ff7bac;"/>
        <path d="M37.69,90.9c.79-.46.76,1.08,0,.92-.35-.07-.31-.74,0-.92Z" style="fill: #ff7bac;"/>
        <path d="M36.16,91.35c.62-.38.83.59.37.87-.6.36-.77-.62-.37-.87Z" style="fill: #ff7bac;"/>
        <path d="M33.32,92.2c.58-.3.77.63.32.88-.64.36-.76-.65-.32-.88Z" style="fill: #ff7bac;"/>
        <path d="M31.14,67.87c.74-.48.84,1.01.06,1.01-.33,0-.38-.81-.06-1.01Z" style="fill: #ff7bac;"/>
        <path d="M39.38,90.39c.71-.39.85.87.05.91-.39.02-.42-.7-.05-.91Z" style="fill: #ff7bac;"/>
        <path d="M48.72,65.47c.85-.55.82,1.08.04.97-.36-.05-.35-.77-.04-.97Z" style="fill: #ff7bac;"/>
        <path d="M47.73,86.85c.77-.32.6,1.17-.12.97-.33-.09-.26-.81.12-.97Z" style="fill: #ff7bac;"/>
        <path d="M26.31,92.23c.59-.3.71.67.27.89-.58.29-.72-.67-.27-.89Z" style="fill: #ff7bac;"/>
        <path d="M47.79,64.66c.72-.42.78.77.21.98-.5.18-.67-.7-.21-.98Z" style="fill: #ff7bac;"/>
        <path d="M28.47,93.64c.64-.24.65.99-.04.98-.34,0-.39-.82.04-.98Z" style="fill: #ff7bac;"/>
        <path d="M44.82,88.83c.83-.55.83,1.03.04.86-.32-.07-.31-.68-.04-.86Z" style="fill: #ff7bac;"/>
        <path d="M49.43,84.23c.73-.42.8.9.04.93-.41.01-.37-.73-.04-.93Z" style="fill: #ff7bac;"/>
        <path d="M29.58,68.37c.61-.37.78.59.33.87-.64.39-.74-.62-.33-.87Z" style="fill: #ff7bac;"/>
        <path d="M46.75,63.89c.78-.48.81.97.04.97-.31,0-.41-.75-.04-.97Z" style="fill: #ff7bac;"/>
        <path d="M37.59,92.08c.75-.44.77.82.1.89-.37.04-.46-.68-.1-.89Z" style="fill: #ff7bac;"/>
        <path d="M36.58,92.32c.57-.34.79.56.31.83-.63.34-.69-.6-.31-.83Z" style="fill: #ff7bac;"/>
        <path d="M30.19,93.19c.72-.42.77.91.06.9-.29,0-.4-.7-.06-.9Z" style="fill: #ff7bac;"/>
        <path d="M43.21,89.25c.7-.24.55,1.08-.12.96-.41-.08-.27-.83.12-.96Z" style="fill: #ff7bac;"/>
        <path d="M45.87,63c.52-.17.58.78.15,1-.65.33-.75-.8-.15-1Z" style="fill: #ff7bac;"/>
        <path d="M25.21,91.53c.55-.28.73.58.32.82-.62.37-.76-.6-.32-.82Z" style="fill: #ff7bac;"/>
        <path d="M25.78,69.47c.57-.29.71.77.17.97-.5.19-.63-.74-.17-.97Z" style="fill: #ff7bac;"/>
        <path d="M24.73,70.96c.71-.46.81.94.06.94-.33,0-.37-.75-.06-.94Z" style="fill: #ff7bac;"/>
        <path d="M35.13,65.54c.65-.41.76.64.32.88-.56.31-.74-.62-.32-.88Z" style="fill: #ff7bac;"/>
        <path d="M34.06,93.07c.68-.42.8.82.1.88-.4.04-.41-.7-.1-.88Z" style="fill: #ff7bac;"/>
        <path d="M38.64,91.71c.65-.32.74.84.05.91-.4.04-.44-.71-.05-.91Z" style="fill: #ff7bac;"/>
        <path d="M37.18,63.46c.64-.36.72.67.27.9-.6.31-.72-.64-.27-.9Z" style="fill: #ff7bac;"/>
        <path d="M33.99,65.91c.61-.39.81.61.32.87-.58.32-.71-.63-.32-.87Z" style="fill: #ff7bac;"/>
        <path d="M36.33,65.21c.69-.37.73.98,0,.98-.35,0-.37-.78,0-.98Z" style="fill: #ff7bac;"/>
        <path d="M48.61,85.54c.74-.32.6,1.12-.13.92-.34-.1-.21-.77.13-.92Z" style="fill: #ff7bac;"/>
        <path d="M32.65,93.49c.73-.37.65,1.08-.05.87-.3-.09-.26-.71.05-.87Z" style="fill: #ff7bac;"/>
        <path d="M46.81,88.24c.6-.3.72.66.2.87-.55.22-.64-.65-.2-.87Z" style="fill: #ff7bac;"/>
        <path d="M30.51,65.63c.79-.53.78,1.01.05.9-.32-.05-.36-.7-.05-.9Z" style="fill: #ff7bac;"/>
        <path d="M39.88,64.01c.53-.21.64.65.27.9-.63.42-.83-.67-.27-.9Z" style="fill: #ff7bac;"/>
        <path d="M34.08,64.41c.48-.16.61.69.16.93-.64.34-.74-.74-.16-.93Z" style="fill: #ff7bac;"/>
        <path d="M35.22,64.04c.5-.19.66.66.22.91-.63.35-.74-.72-.22-.91Z" style="fill: #ff7bac;"/>
        <path d="M38.66,93.14c.62-.32.72.7.15.87-.47.14-.57-.66-.15-.87Z" style="fill: #ff7bac;"/>
        <path d="M30.42,95.34c.58-.28.69.88,0,.91-.36.01-.36-.74,0-.91Z" style="fill: #ff7bac;"/>
        <path d="M38.51,64.45c.62-.3.71.94,0,.98-.38.02-.36-.8,0-.98Z" style="fill: #ff7bac;"/>
        <path d="M36.5,93.77c.56-.36.79.5.36.75-.6.35-.73-.52-.36-.75Z" style="fill: #ff7bac;"/>
        <path d="M35.43,92.66c.51-.24.67.62.26.84-.58.32-.71-.63-.26-.84Z" style="fill: #ff7bac;"/>
        <path d="M37.61,93.45c.67-.43.8.77.1.83-.4.03-.38-.65-.1-.83Z" style="fill: #ff7bac;"/>
        <path d="M32.91,66.26c.58-.4.77.52.38.8-.61.41-.76-.54-.38-.8Z" style="fill: #ff7bac;"/>
        <path d="M37.37,64.88c.72-.48.81.9.05.9-.33,0-.34-.71-.05-.9Z" style="fill: #ff7bac;"/>
        <path d="M41.14,63.54c.57-.35.76.65.27.9-.56.28-.64-.67-.27-.9Z" style="fill: #ff7bac;"/>
        <path d="M33.3,94.61c.66-.32.62,1.05-.06.87-.31-.08-.25-.72.06-.87Z" style="fill: #ff7bac;"/>
        <path d="M40.44,91.17c.67-.33.7.79.04.85-.39.04-.43-.66-.04-.85Z" style="fill: #ff7bac;"/>
        <path d="M28.56,95.9c.54-.31.73.61.26.83-.51.24-.62-.62-.26-.83Z" style="fill: #ff7bac;"/>
        <path d="M29.42,94.5c.54-.28.68.53.31.76-.59.36-.74-.54-.31-.76Z" style="fill: #ff7bac;"/>
        <path d="M31.88,66.53c.58-.22.58.98-.05.99-.35,0-.39-.83.05-.99Z" style="fill: #ff7bac;"/>
        <path d="M42.73,62.96c.68-.46.83.83.1.89-.38.03-.38-.7-.1-.89Z" style="fill: #ff7bac;"/>
        <path d="M31.94,95.01c.65-.38.74.91,0,.85-.28-.02-.27-.69,0-.85Z" style="fill: #ff7bac;"/>
        <path d="M31.75,65.23c.7-.42.72.86.05.9-.34.02-.38-.7-.05-.9Z" style="fill: #ff7bac;"/>
        <path d="M31.14,93.99c.58-.33.68.56.31.76-.54.3-.71-.54-.31-.76Z" style="fill: #ff7bac;"/>
        <path d="M49.76,66.31c.61-.41.78.57.31.82-.55.29-.69-.57-.31-.82Z" style="fill: #ff7bac;"/>
        <path d="M30.37,67.02c.55-.3.62.6.32.81-.58.41-.79-.56-.32-.81Z" style="fill: #ff7bac;"/>
        <path d="M44.98,91.15c.6-.38.75.56.3.77-.48.23-.68-.54-.3-.77Z" style="fill: #ff7bac;"/>
        <path d="M39.66,92.84c.55-.3.69.54.31.77-.53.31-.72-.55-.31-.77Z" style="fill: #ff7bac;"/>
        <path d="M44.77,62.24c.48-.19.58.62.26.84-.61.43-.83-.62-.26-.84Z" style="fill: #ff7bac;"/>
        <path d="M36.09,63.82c.71-.51.84.79.1.83-.35.02-.35-.65-.1-.83Z" style="fill: #ff7bac;"/>
        <path d="M26.67,68.09c.63-.4.73.88.06.89-.32,0-.35-.7-.06-.89Z" style="fill: #ff7bac;"/>
        <path d="M29.43,65.98c.48-.27.68.58.27.83-.59.35-.65-.62-.27-.83Z" style="fill: #ff7bac;"/>
        <path d="M43.38,91.63c.53-.28.64.59.25.79-.56.28-.62-.6-.25-.79Z" style="fill: #ff7bac;"/>
        <path d="M26.55,94.27c.54-.24.65.83,0,.85-.37.02-.31-.72,0-.85Z" style="fill: #ff7bac;"/>
        <path d="M43.72,61.34c.69-.38.61,1.1-.07.89-.28-.09-.2-.74.07-.89Z" style="fill: #ff7bac;"/>
        <path d="M46.85,90.6c.65-.41.75.82.03.8-.29,0-.33-.62-.03-.8Z" style="fill: #ff7bac;"/>
        <path d="M42.2,90.71c.72-.45.7.95-.02.76-.28-.08-.22-.61.02-.76Z" style="fill: #ff7bac;"/>
        <path d="M39.7,62.71c.59-.41.72.52.32.76-.56.33-.64-.54-.32-.76Z" style="fill: #ff7bac;"/>
        <path d="M41.79,62.03c.58-.41.74.54.31.76-.52.28-.64-.53-.31-.76Z" style="fill: #ff7bac;"/>
        <path d="M46.05,89.62c.56-.32.7.52.25.74-.48.23-.63-.52-.25-.74Z" style="fill: #ff7bac;"/>
        <path d="M27.56,95.11c.5-.31.7.51.26.72-.47.22-.59-.51-.26-.72Z" style="fill: #ff7bac;"/>
        <path d="M34.4,94.39c.56-.34.68.78.04.79-.31,0-.33-.62-.04-.79Z" style="fill: #ff7bac;"/>
        <path d="M32.94,64.84c.58-.37.7.83.05.84-.32,0-.34-.66-.05-.84Z" style="fill: #ff7bac;"/>
        <path d="M35.5,94.07c.57-.34.66.78.04.79-.31,0-.32-.62-.04-.79Z" style="fill: #ff7bac;"/>
        <path d="M28.76,67.48c.47-.2.54.68.16.86-.49.23-.58-.68-.16-.86Z" style="fill: #ff7bac;"/>
        <path d="M38.44,63.12c.57-.4.73.56.26.78s-.57-.56-.26-.78Z" style="fill: #ff7bac;"/>
        <path d="M44.12,90.19c.47-.28.63.45.3.66-.48.31-.68-.43-.3-.66Z" style="fill: #ff7bac;"/>
        <path d="M47.92,62.4c.44-.2.49.55.2.74-.51.32-.63-.54-.2-.74Z" style="fill: #ff7bac;"/>
        <path d="M48.86,87.74c.42-.23.56.44.24.63-.45.27-.57-.44-.24-.63Z" style="fill: #ff7bac;"/>
        <path d="M34.87,62.8c.38-.25.61.38.25.6-.44.26-.53-.42-.25-.6Z" style="fill: #ff7bac;"/>
        <path d="M32.75,63.49c.46-.23.48.67-.02.68-.27,0-.26-.55.02-.68Z" style="fill: #ff7bac;"/>
        <path d="M36.13,62.39c.3-.12.46.41.2.61-.47.37-.57-.46-.2-.61Z" style="fill: #ff7bac;"/>
        <path d="M48.86,63.33c.48-.37.58.46.19.62-.33.13-.42-.44-.19-.62Z" style="fill: #ff7bac;"/>
        <path d="M38.79,94.64c.37-.24.56.29.29.48-.39.28-.6-.29-.29-.48Z" style="fill: #ff7bac;"/>
        <path d="M33.84,63.13c.38-.16.48.67-.02.68-.27,0-.27-.56.02-.68Z" style="fill: #ff7bac;"/>
        <path d="M37.06,62.15c.53-.42.6.67.03.61-.2-.02-.19-.48-.03-.61Z" style="fill: #ff7bac;"/>
        <path d="M36.74,95.25c.37-.24.56.29.29.48-.39.28-.58-.3-.29-.48Z" style="fill: #ff7bac;"/>
        <path d="M37.79,94.94c.38-.25.57.28.29.48-.4.29-.55-.31-.29-.48Z" style="fill: #ff7bac;"/>
        <path d="M34.75,95.83c.39-.24.46.35.24.5-.4.27-.55-.31-.24-.5Z" style="fill: #ff7bac;"/>
        <path d="M40.89,92.59c.31-.23.56.12.34.42-.29.39-.69-.16-.34-.42Z" style="fill: #ff7bac;"/>
        <path d="M46.88,61.68c.37-.26.57.31.3.52-.42.33-.58-.33-.3-.52Z" style="fill: #ff7bac;"/>
        <path d="M35.74,95.54c.47-.27.52.54.03.56-.26,0-.23-.44-.03-.56Z" style="fill: #ff7bac;"/>
        <path d="M30.54,64.27c.44-.34.55.35.25.53s-.52-.32-.25-.53Z" style="fill: #ff7bac;"/>
        <path d="M33.76,96.12c.45-.27.51.55.03.56-.22,0-.26-.42-.03-.56Z" style="fill: #ff7bac;"/>
        <path d="M31.62,63.92c.43-.33.53.35.25.53-.33.22-.52-.33-.25-.53Z" style="fill: #ff7bac;"/>
        <path d="M38.21,61.77c.37-.27.55.33.25.54-.39.27-.49-.36-.25-.54Z" style="fill: #ff7bac;"/>
        <path d="M48.04,89.15c.43-.23.48.66-.03.59-.24-.03-.14-.5.03-.59Z" style="fill: #ff7bac;"/>
        <path d="M32.77,96.41c.33-.18.49.35.19.51-.36.19-.46-.36-.19-.51Z" style="fill: #ff7bac;"/>
        <path d="M39.36,61.4c.31-.2.56.35.19.56s-.45-.39-.19-.56Z" style="fill: #ff7bac;"/>
        <path d="M41.06,93.97c.33-.13.39.39.13.53-.37.2-.49-.39-.13-.53Z" style="fill: #ff7bac;"/>
        <path d="M39.95,94.3c.29-.13.44.34.19.52-.37.26-.51-.38-.19-.52Z" style="fill: #ff7bac;"/>
        <path d="M31.78,96.71c.31-.15.44.38.14.53-.33.16-.44-.38-.14-.53Z" style="fill: #ff7bac;"/>
        <path d="M42.06,92.25c.37-.26.51.38.19.52-.28.12-.41-.36-.19-.52Z" style="fill: #ff7bac;"/>
        <path d="M45.28,60.96c.37-.26.5.29.24.48-.37.26-.5-.29-.24-.48Z" style="fill: #ff7bac;"/>
        <path d="M29.51,64.6c.35-.26.5.29.25.47-.35.26-.5-.29-.25-.47Z" style="fill: #ff7bac;"/>
        <path d="M42.18,93.65c.22-.06.41.39.08.55-.37.18-.38-.46-.08-.55Z" style="fill: #ff7bac;"/>
        <path d="M27.72,66.66c.3-.2.44.38.2.55-.3.2-.44-.38-.2-.55Z" style="fill: #ff7bac;"/>
        <path d="M28.49,64.94c.27-.19.53.27.25.47-.36.26-.49-.3-.25-.47Z" style="fill: #ff7bac;"/>
        <path d="M30.69,97.08c.4-.3.48.33.19.45-.21.09-.46-.25-.19-.45Z" style="fill: #ff7bac;"/>
        <path d="M40.46,61.1c.4-.28.49.35.19.5-.26.13-.46-.31-.19-.5Z" style="fill: #ff7bac;"/>
        <path d="M49.79,86.47c.39-.28.45.34.18.47-.26.13-.4-.32-.18-.47Z" style="fill: #ff7bac;"/>
        <path d="M27.47,65.27c.31-.21.43.33.19.49-.31.21-.43-.33-.19-.49Z" style="fill: #ff7bac;"/>
        <path d="M43.19,93.41c.38-.25.41.36.13.48-.26.11-.36-.33-.13-.48Z" style="fill: #ff7bac;"/>
        <path d="M41.62,60.72c.33-.22.45.37.14.51s-.34-.37-.14-.51Z" style="fill: #ff7bac;"/>
        <path d="M49.9,64.17c.33-.22.45.37.13.51-.28.13-.36-.36-.13-.51Z" style="fill: #ff7bac;"/>
        <path d="M47.33,60.29c.36-.24.4.41.13.52-.2.08-.39-.34-.13-.52Z" style="fill: #ff7bac;"/>
        <path d="M29.71,97.37c.26-.16.42.23.23.38-.27.23-.5-.21-.23-.38Z" style="fill: #ff7bac;"/>
        <path d="M48.69,90.29c.28-.16.4.36.13.48s-.35-.36-.13-.48Z" style="fill: #ff7bac;"/>
        <path d="M28.72,97.66c.28-.18.41.25.18.4-.28.18-.41-.25-.18-.4Z" style="fill: #ff7bac;"/>
        <path d="M44.3,93.08c.29-.18.41.26.18.41-.29.18-.41-.26-.18-.41Z" style="fill: #ff7bac;"/>
        <path d="M45.42,92.75c.29-.18.37.28.18.41-.28.19-.42-.25-.18-.41Z" style="fill: #ff7bac;"/>
        <path d="M26.51,65.58c.18-.05.31.29.14.44-.36.32-.47-.36-.14-.44Z" style="fill: #ff7bac;"/>
        <path d="M43.89,59.98c.27-.17.39.3.19.44-.3.21-.43-.29-.19-.44Z" style="fill: #ff7bac;"/>
        <path d="M42.78,60.34c.25-.15.36.3.13.45-.33.22-.32-.34-.13-.45Z" style="fill: #ff7bac;"/>
        <path d="M49.82,88.73c.24-.19.38.22.18.35-.27.18-.33-.23-.18-.35Z" style="fill: #ff7bac;"/>
        <path d="M36.01,61.19c.2-.13.37.21.19.37-.25.22-.41-.23-.19-.37Z" style="fill: #ff7bac;"/>
        <path d="M49.93,61.87c.24-.21.37.22.18.37-.24.21-.37-.22-.18-.37Z" style="fill: #ff7bac;"/>
        <path d="M46.5,92.49c.21-.17.39.14.23.28-.24.2-.43-.11-.23-.28Z" style="fill: #ff7bac;"/>
        <path d="M37.91,96.21c.15-.07.34.22.13.36-.3.2-.3-.28-.13-.36Z" style="fill: #ff7bac;"/>
        <path d="M25.39,66.01c.23-.13.27.27.13.38-.2.16-.36-.26-.13-.38Z" style="fill: #ff7bac;"/>
        <path d="M50.87,87.32c.28-.23.32.29.12.37-.15.07-.3-.23-.12-.37Z" style="fill: #ff7bac;"/>
        <path d="M36.86,96.52c.2-.16.34.26.13.36-.2.09-.28-.24-.13-.36Z" style="fill: #ff7bac;"/>
        <path d="M34.92,61.55c.2-.1.29.26.13.39-.21.17-.36-.28-.13-.39Z" style="fill: #ff7bac;"/>
        <path d="M37.05,60.91c.21-.19.37.15.18.31-.21.18-.37-.15-.18-.31Z" style="fill: #ff7bac;"/>
        <path d="M38.86,95.99c.2-.17.35.14.18.29-.2.17-.35-.14-.18-.29Z" style="fill: #ff7bac;"/>
        <path d="M45,59.68c.22-.19.37.15.18.31-.22.19-.37-.15-.18-.31Z" style="fill: #ff7bac;"/>
        <path d="M35.87,96.81c.24-.18.33.35.07.38-.1.01-.23-.26-.07-.38Z" style="fill: #ff7bac;"/>
        <path d="M34.87,97.1c.18-.15.34.16.18.29-.21.16-.35-.15-.18-.29Z" style="fill: #ff7bac;"/>
        <path d="M33.78,61.98c.22-.19.36.16.18.31-.15.12-.38-.15-.18-.31Z" style="fill: #ff7bac;"/>
        <path d="M39.92,95.68c.22-.17.35.16.18.29-.14.11-.36-.14-.18-.29Z" style="fill: #ff7bac;"/>
        <path d="M32.69,62.34c.21-.19.37.16.18.31-.17.14-.33-.18-.18-.31Z" style="fill: #ff7bac;"/>
        <path d="M25.96,67.29c.22-.19.33.21.13.32-.21.12-.27-.2-.13-.32Z" style="fill: #ff7bac;"/>
        <path d="M38.2,60.53c.22-.13.27.21.13.33-.19.16-.35-.2-.13-.33Z" style="fill: #ff7bac;"/>
        <path d="M46.17,59.3c.23-.13.27.22.13.33-.19.16-.36-.2-.13-.33Z" style="fill: #ff7bac;"/>
        <path d="M47.67,92.14c.22-.11.26.2.12.31-.19.14-.34-.2-.12-.31Z" style="fill: #ff7bac;"/>
        <path d="M41.02,95.36c.3-.23.29.3.07.32-.09.01-.23-.2-.07-.32Z" style="fill: #ff7bac;"/>
        <path d="M27.75,98.01c.18-.14.31.19.12.3s-.27-.19-.12-.3Z" style="fill: #ff7bac;"/>
        <path d="M33.94,97.38c.13-.06.29.17.12.3-.23.18-.31-.22-.12-.3Z" style="fill: #ff7bac;"/>
        <path d="M50.25,90c.19-.15.32.19.12.31s-.27-.2-.12-.31Z" style="fill: #ff7bac;"/>
        <path d="M37.93,97.46c.19-.14.33.21.12.3-.18.08-.28-.18-.12-.3Z" style="fill: #ff7bac;"/>
        <path d="M39.3,60.17c.19-.15.29.2.13.33-.19.15-.29-.2-.13-.33Z" style="fill: #ff7bac;"/>
        <path d="M36,59.89c.17-.09.27.24.07.35-.27.15-.22-.27-.07-.35Z" style="fill: #ff7bac;"/>
        <path d="M31.66,62.67c.12-.07.31.19.13.33-.21.16-.32-.22-.13-.33Z" style="fill: #ff7bac;"/>
        <path d="M32.95,97.67c.17-.07.23.25.07.32-.28.13-.19-.27-.07-.32Z" style="fill: #ff7bac;"/>
        <path d="M30.63,63.01c.14-.05.22.23.08.34-.22.17-.28-.27-.08-.34Z" style="fill: #ff7bac;"/>
        <path d="M38.92,97.17c.18-.13.28.2.12.3-.1.07-.3-.18-.12-.3Z" style="fill: #ff7bac;"/>
        <path d="M40.46,59.8c.11-.08.32.19.13.33s-.29-.21-.13-.33Z" style="fill: #ff7bac;"/>
        <path d="M36.98,97.73c.19-.1.26.14.12.25-.23.18-.31-.15-.12-.25Z" style="fill: #ff7bac;"/>
        <path d="M34.8,60.35c.18-.21.39.09.18.25-.16.13-.27-.14-.18-.25Z" style="fill: #ff7bac;"/>
        <path d="M29.55,63.42c.22-.1.26.16.13.27-.18.14-.32-.17-.13-.27Z" style="fill: #ff7bac;"/>
        <path d="M42.13,95.03c.16-.11.26.13.17.24-.14.16-.38-.09-.17-.24Z" style="fill: #ff7bac;"/>
        <path d="M37.04,59.61c.17-.13.29.15.13.27-.17.13-.29-.15-.13-.27Z" style="fill: #ff7bac;"/>
        <path d="M33.76,60.69c.17-.13.29.15.13.27-.17.13-.29-.15-.13-.27Z" style="fill: #ff7bac;"/>
        <path d="M41.56,59.5c.17-.13.29.15.12.27-.17.13-.29-.15-.12-.27Z" style="fill: #ff7bac;"/>
        <path d="M31.96,97.96c.18-.04.13.36-.03.35-.15,0-.1-.32.03-.35Z" style="fill: #ff7bac;"/>
        <path d="M49.01,91.75c.17-.12.28.14.12.25-.17.12-.28-.14-.12-.25Z" style="fill: #ff7bac;"/>
        <path d="M43.25,94.71c.17-.12.28.14.12.25-.17.12-.28-.14-.12-.25Z" style="fill: #ff7bac;"/>
        <path d="M34.01,98.6c.16-.12.27.14.12.25-.16.12-.27-.14-.12-.25Z" style="fill: #ff7bac;"/>
        <path d="M35,98.31c.16-.12.27.14.12.25-.16.12-.27-.14-.12-.25Z" style="fill: #ff7bac;"/>
        <path d="M35.99,98.02c.16-.12.27.14.12.25-.16.12-.27-.14-.12-.25Z" style="fill: #ff7bac;"/>
        <path d="M38.14,59.25c.17-.13.29.15.13.27-.17.13-.29-.15-.13-.27Z" style="fill: #ff7bac;"/>
        <path d="M47.34,58.92c.23-.07.12.34.01.37-.11.04-.24-.3-.01-.37Z" style="fill: #ff7bac;"/>
        <path d="M42.73,59.12c.16-.11.27.17.12.27-.19.13-.28-.16-.12-.27Z" style="fill: #ff7bac;"/>
        <path d="M31.64,61.38c.12-.04.22.17.07.29-.21.16-.27-.23-.07-.29Z" style="fill: #ff7bac;"/>
        <path d="M32.67,61.04c.1-.07.3.15.13.27-.19.13-.27-.16-.13-.27Z" style="fill: #ff7bac;"/>
        <path d="M27.45,64.11c.1-.07.3.15.13.27-.19.13-.27-.16-.13-.27Z" style="fill: #ff7bac;"/>
        <path d="M40.03,96.84c.14-.04.19.17.12.25-.17.2-.32-.19-.12-.25Z" style="fill: #ff7bac;"/>
        <path d="M41.08,96.54c.1-.06.29.14.12.25-.18.12-.26-.16-.12-.25Z" style="fill: #ff7bac;"/>
        <path d="M26.71,98.31c.12-.07.19.16.12.25-.16.19-.28-.16-.12-.25Z" style="fill: #ff7bac;"/>
        <path d="M28.53,63.76c.12-.08.25.17.13.27-.18.13-.28-.16-.13-.27Z" style="fill: #ff7bac;"/>
        <path d="M24.21,66.45c.18-.13.28.16.13.26-.12.08-.25-.17-.13-.26Z" style="fill: #ff7bac;"/>
        <path d="M36.1,99.18c.12-.07.24.17.12.25-.17.12-.27-.15-.12-.25Z" style="fill: #ff7bac;"/>
        <path d="M38.04,98.61c.12-.07.19.16.12.25-.17.19-.28-.16-.12-.25Z" style="fill: #ff7bac;"/>
        <path d="M39.29,58.87c.17-.06.19.2.07.29-.15.11-.25-.22-.07-.29Z" style="fill: #ff7bac;"/>
        <path d="M34.78,59.05c.25-.18.2.25.07.29-.05.02-.24-.17-.07-.29Z" style="fill: #ff7bac;"/>
        <path d="M33.69,59.41c.25-.18.2.25.07.29-.05.02-.24-.17-.07-.29Z" style="fill: #ff7bac;"/>
        <path d="M35.88,58.69c.21-.16.27.23.07.29-.09.03-.18-.21-.07-.29Z" style="fill: #ff7bac;"/>
        <path d="M42.19,96.21c.11-.08.24.16.12.25-.21.14-.21-.19-.12-.25Z" style="fill: #ff7bac;"/>
        <path d="M39.04,98.32s.23.16.07.26c-.24.15-.19-.23-.07-.26Z" style="fill: #ff7bac;"/>
        <path d="M45.48,94.05c.14-.08.2.19.07.27-.14.08-.2-.19-.07-.27Z" style="fill: #ff7bac;"/>
        <path d="M30.56,61.8c.17-.12.27.11.12.21-.17.12-.27-.11-.12-.21Z" style="fill: #ff7bac;"/>
        <path d="M33.02,98.89c.14-.08.2.19.07.26-.14.08-.2-.19-.07-.26Z" style="fill: #ff7bac;"/>
        <path d="M43.89,58.74c.15-.09.21.21.07.29-.14.09-.21-.21-.07-.29Z" style="fill: #ff7bac;"/>
        <path d="M44.36,94.38c.14-.08.2.19.07.27-.14.08-.2-.19-.07-.27Z" style="fill: #ff7bac;"/>
        <path d="M35.11,99.46c.14-.08.2.19.07.26-.14.08-.2-.19-.07-.26Z" style="fill: #ff7bac;"/>
        <path d="M37.1,98.89c.14-.08.2.19.07.26-.14.08-.2-.19-.07-.26Z" style="fill: #ff7bac;"/>
        <path d="M40.4,58.57c.2-.14.21.15.12.21-.16.12-.28-.1-.12-.21Z" style="fill: #ff7bac;"/>
        <path d="M32.6,59.77c.17-.1.23.24.07.29-.06.02-.23-.19-.07-.29Z" style="fill: #ff7bac;"/>
        <path d="M30.87,98.33c.09-.1.27.07.17.18-.13.14-.27-.06-.17-.18Z" style="fill: #ff7bac;"/>
        <path d="M46.55,93.74c.15-.08.18.22.07.27-.05.02-.23-.18-.07-.27Z" style="fill: #ff7bac;"/>
        <path d="M37.03,58.31c.11-.06.2.12.12.21-.17.19-.29-.11-.12-.21Z" style="fill: #ff7bac;"/>
        <path d="M43.25,95.96c.16-.17.28.11.12.19-.1.06-.19-.11-.12-.19Z" style="fill: #ff7bac;"/>
        <path d="M29.84,98.63c.1-.12.28.1.12.19s-.18-.12-.12-.19Z" style="fill: #ff7bac;"/>
        <path d="M40.04,98.09c.16-.17.28.11.12.19-.1.06-.19-.11-.12-.19Z" style="fill: #ff7bac;"/>
        <path d="M45,58.43c.21-.12.16.17.07.23-.13.08-.2-.15-.07-.23Z" style="fill: #ff7bac;"/>
        <path d="M29.48,62.16c.11-.06.2.12.12.21-.12.14-.29-.11-.12-.21Z" style="fill: #ff7bac;"/>
        <path d="M31.98,99.19c.08-.05.26.11.12.19-.2.12-.19-.15-.12-.19Z" style="fill: #ff7bac;"/>
        <path d="M26.38,64.52c.12-.14.29.11.12.21-.11.06-.2-.12-.12-.21Z" style="fill: #ff7bac;"/>
        <path d="M28.86,98.92c.12-.07.18.14.07.21s-.18-.14-.07-.21Z" style="fill: #ff7bac;"/>
        <path d="M42.72,57.81c.13-.08.19.15.07.23s-.19-.15-.07-.23Z" style="fill: #ff7bac;"/>
        <path d="M31.05,99.46c.13-.07.18.14.07.21s-.18-.14-.07-.21Z" style="fill: #ff7bac;"/>
        <path d="M38.08,58.02c.08-.08.26-.06.2.09s-.35.07-.2-.09Z" style="fill: #ff7bac;"/>
        <path d="M41.56,58.19c.13-.08.19.15.07.23s-.19-.15-.07-.23Z" style="fill: #ff7bac;"/>
        <path d="M33.14,100.04c.13-.07.18.14.06.21s-.18-.14-.06-.21Z" style="fill: #ff7bac;"/>
        <path d="M37.11,100.07c.13-.07.18.14.06.21s-.18-.14-.06-.21Z" style="fill: #ff7bac;"/>
        <path d="M38.05,99.8c.12-.12.19.12.12.19-.12.12-.19-.12-.12-.19Z" style="fill: #ff7bac;"/>
        <path d="M39.1,99.49c.13-.07.19.14.06.21s-.19-.14-.06-.21Z" style="fill: #ff7bac;"/>
        <path d="M48.45,58.62c.23-.12.15.18.07.23-.03.02-.22-.15-.07-.23Z" style="fill: #ff7bac;"/>
        <path d="M31.51,60.19c.22-.11.15.18.07.23-.03.02-.22-.15-.07-.23Z" style="fill: #ff7bac;"/>
        <path d="M41.14,97.77c.17-.15.16.18.06.21-.05.01-.14-.15-.06-.21Z" style="fill: #ff7bac;"/>
        <path d="M30.48,60.53c.16-.07.17.18.07.23-.04.02-.22-.16-.07-.23Z" style="fill: #ff7bac;"/>
        <path d="M44.37,95.64c.12-.1.19.07.11.14-.12.1-.19-.07-.11-.14Z" style="fill: #ff7bac;"/>
        <path d="M34.13,99.81c.11-.1.19.07.11.14-.11.1-.19-.07-.11-.14Z" style="fill: #ff7bac;"/>
        <path d="M39.23,57.64c.12-.12.2.07.12.15-.12.12-.2-.07-.12-.15Z" style="fill: #ff7bac;"/>
        <path d="M40.39,57.26c.08-.04.19.04.12.15-.17.11-.24-.09-.12-.15Z" style="fill: #ff7bac;"/>
        <path d="M47.62,93.48c.16-.14.25.14.06.15-.04,0-.13-.09-.06-.15Z" style="fill: #ff7bac;"/>
        <path d="M42.25,97.45c.12-.1.19.07.11.14-.12.1-.19-.07-.11-.14Z" style="fill: #ff7bac;"/>
        <path d="M46.17,58.05c.16-.06.07.23.01.25-.09.03-.11-.21-.01-.25Z" style="fill: #ff7bac;"/>
        <path d="M25.36,64.86c.16-.06.07.22.02.24-.09.03-.11-.2-.02-.24Z" style="fill: #ff7bac;"/>
        <path d="M34.77,57.87c.16-.15.17.13.06.17-.12.05-.11-.12-.06-.17Z" style="fill: #ff7bac;"/>
        <path d="M35.87,57.5c.13-.07.17.11.06.17-.13.07-.17-.11-.06-.17Z" style="fill: #ff7bac;"/>
        <path d="M35.08,100.66c.12-.06.16.1.06.15-.12.06-.16-.1-.06-.15Z" style="fill: #ff7bac;"/>
        <path d="M36.12,100.36c.09-.03.1.2.01.22s-.1-.2-.01-.22Z" style="fill: #ff7bac;"/>
        <path d="M27.88,99.21c.09-.03.1.2.01.22s-.1-.2-.01-.22Z" style="fill: #ff7bac;"/>
        <path d="M32.1,100.34c.12-.06.16.1.06.15-.12.06-.16-.1-.06-.15Z" style="fill: #ff7bac;"/>
        <path d="M28.51,62.53c.13-.07.17.11.07.16-.13.07-.17-.11-.07-.16Z" style="fill: #ff7bac;"/>
        <path d="M45.53,95.29c.12-.03.11.11.06.15-.1.09-.17-.13-.06-.15Z" style="fill: #ff7bac;"/>
        <path d="M29.91,99.85c.17-.13.15.12.06.15-.03,0-.13-.09-.06-.15Z" style="fill: #ff7bac;"/>
        <path d="M27.43,62.89c.12-.03.11.12.07.16-.1.1-.18-.13-.07-.16Z" style="fill: #ff7bac;"/>
        <path d="M32.59,58.59c.1-.1.18.14.06.17-.12.03-.11-.12-.06-.17Z" style="fill: #ff7bac;"/>
        <path d="M33.68,58.23c.1-.1.18.14.06.17-.12.03-.12-.12-.06-.17Z" style="fill: #ff7bac;"/>
        <path d="M46.65,94.97c.09-.07.12.11.06.15-.09.07-.12-.11-.06-.15Z" style="fill: #ff7bac;"/>
        <path d="M43.89,57.49c.19-.05.02.26-.05.14-.03-.06.04-.14.05-.14Z" style="fill: #ff7bac;"/>
        <path d="M50.68,91.32c.06-.07.08.2,0,.17-.04-.02-.05-.12,0-.17Z" style="fill: #ff7bac;"/>
        <path d="M37.02,57.12s.12.05.06.1c-.14.13-.16-.06-.06-.1Z" style="fill: #ff7bac;"/>
        <path d="M26.41,63.22c.06-.07.09.21.01.18-.04-.02-.06-.13-.01-.18Z" style="fill: #ff7bac;"/>
        <path d="M29.4,60.94c.08-.06.12.05.06.1-.08.07-.13-.06-.06-.1Z" style="fill: #ff7bac;"/>
        <path d="M43.41,97.11s.11.05.06.1c-.13.12-.16-.06-.06-.1Z" style="fill: #ff7bac;"/>
        <polygon points="45.06 57.16 45.15 57.17 45.07 57.29 45.04 57.27 45.06 57.16" style="fill: #ff7bac;"/>
        <polygon points="31.55 58.93 31.59 59.01 31.51 59.07 31.48 59.05 31.55 58.93" style="fill: #ff7bac;"/>
        <polygon points="27.3 61.64 27.35 61.68 27.36 61.74 27.3 61.76 27.3 61.64" style="fill: #ff7bac;"/>
        <polygon points="33 101.31 33.08 101.32 33.06 101.41 33.03 101.39 33 101.31" style="fill: #ff7bac;"/>
        <g>
          <path d="M35.79,84.2c-.09-.2-.59-.25-.32-.93-.09.05-.42.14-.45.17-.03.03,0,.71.01.73.06.06.32-.1.4-.09s.21.1.36.13c.18.42-.08,1.33-.66,1.25s-.27-.94-.3-.99c-.03-.04-.67.43-.82-.16-.07-.28.09-.59.07-.61-.04-.04-.55.2-.72-.31-.14-.44.33-.68-.51-.43.51,1.24-1.28,1.89-1.03.29-.98.37-.36.15-.52.83-.37,1.63-2.4-.26-.32-.84-.23-.26-.17-.84.12-1.12.17-.17.49-.21.5-.24.01-.04.03-.8,0-.83-.03-.04-.77.44-.93-.24-.23-.94.82-1.15.84-1.27,0-.04-.03-.73-.04-.76-.02-.04-.6.39-.82-.16-.36-.87.86-1.56,1.09-.81.15.48-.33.67.46.39-.14-.14-.02-.73-.04-.76-.03-.03-.59.22-.77-.12-.43-.82.69-1.64.98-.84.04.12-.05.55.06.55.77-.29.17-.34.46-.95-1.61.45-.52-2.01.15-1.12.29.38-.18.9.68.39-.03-.88-.06-.33-.49-.42-.33-.07-.53-.51-.41-.92.18-.62.93-.6.94-.72.02-1.19-.44-.25-.8-.65-.81-.9,1.34-2.3,1.02-.38.65-.5,1.24-.04.97.78.55-.5,1.23-.14,1.02.58l.46-.11c.04-1.07-.25-.43-.61-.74-.72-.61.66-1.87.93-1.02.17.52-.35.69.55.46-.05-.31-.11-.61.14-.92-.66.58-1.31.02-.86-.75-1.96.62-.18-2.14.18-.84.07.25-.08.54-.08.57.01.12.36-.12.46-.12.41.02.56.57.35,1.01,1.16-.91.97.71,1.05.72.03,0,.56-.33.73-.2-.57-.71.57-1.82,1.05-1.18.39.52-.23,1.49-.87,1.31.19.1.09.77.12.78.03,0,.52-.32.65-.15-.42-1.37,1.67-1.89,1.22-.41-.1.33-.57.67-.85.63.1.12.02.57.03.59.01.03.6-.14.63-.17.02-.02-.05-.36.05-.59.33-.77,1.17-.53,1.06.21-.08.5-.73.65-.74.71,0,.04.2.47.06.67l.44-.08c.08-2.31,1.96-.77.83.04-.09.07-.41.08-.46.17-.02.05.28.58-.07.92,1.2-.68,1.32,1.09.12,1.34.43.74-.51,1.04.7.8-.48-.47-.08-1.52.68-1.44-.59-1.21,1.18-1.92,1.05-.66-.07.65-.72.71-.74.77-.01.03.17.37.14.62-.02.14-.25.47-.25.5,0,.06.5.6.16,1.08.74-.23.25-.24.3-.75.02-.2.26-.45.25-.56,0-.02-.23-.2-.23-.23-.28-1.29,1.43-1.73,1.25-.45-.02.14-.25.47-.25.5,0,.1.21.18.23.29.15.64-.29,1.15-.89,1.17.75,1.15-1.27,1.98-.89.31-1,.31-.17.22-.53,1.02-.2.44-.63.41-.69.51-.03.05.25.59-.2,1.04-.52.51-.6-.07-.58,1.03,1.25-.54,1.11,1.43-.1,1.33.56.54-.41,1.77-1,1.27-.45-.38.23-1.06-.86-.47.05,1.09.03.32.65.42,1.45.23-.97,3-.89.56-.22.33-.63.18-.69.21-.09.04.14.79-.32,1.15-.96.74-.83-.69-.88-.76-.02-.03-.6.28-.73.02.9,1.08-1.03,1.91-.86.64.08-.59.83-.64.82-.72-.21-.13-.15-.47-.09-.73-.96.13-.13.52-.67,1.11-.63.68-1.27-.45-.54-1,.08-.06.35-.06.4-.15.01-.02-.12-.32-.13-.43,0-.02.11-.29.09-.32-.03-.03-.29.06-.43.04Z" style="fill: #ff7bac;"/>
          <g>
            <path d="M34.04,73.54c.1.2.71-.19.73-.14.02.03-.09.6.01.75-.14-.16-.7.19-.73.08-.01-.03.06-.55-.01-.69Z" style="fill: #ff7bac;"/>
            <path d="M37.59,72.41l.73-.14c-.2.32-.03.49.01.75-.26-.08-.46.02-.73.14.15-.29.07-.51-.01-.75Z" style="fill: #ff7bac;"/>
            <path d="M38.22,84.64c.83-.2.37-.07.62.57l-.67.17.04-.74Z" style="fill: #ff7bac;"/>
            <path d="M38.56,73.13c.21.13.49-.03.74-.14-.1.17.02.63-.05.71-.02.03-.55.17-.57.15-.02-.04-.03-.59-.12-.71Z" style="fill: #ff7bac;"/>
            <path d="M35.06,74.29c.61.03.59-.4.71.47-.14-.02-.59.24-.62.22-.03-.01-.09-.57-.09-.69Z" style="fill: #ff7bac;"/>
            <path d="M43.11,77.52c.13-.01-.19.85.12.89l-.57.2c.19-.5-.25-1.02.44-1.09Z" style="fill: #ff7bac;"/>
            <path d="M41.11,82.7s.51-.17.54-.16c.08.04-.02.56.17.63l-.73.19c.05-.15-.04-.58.02-.65Z" style="fill: #ff7bac;"/>
            <path d="M32.03,82.13s.41-.07.51-.13c-.11.74.27.62-.49.91.09-.16-.05-.76-.02-.79Z" style="fill: #ff7bac;"/>
            <path d="M35.79,84.2c-.15-.02-.28-.11-.36-.13s-.34.15-.4.09c-.02-.02-.04-.7-.01-.73.03-.02.36-.12.45-.17-.27.67.23.73.32.93Z" style="fill: #ff7bac;"/>
            <path d="M39.65,73.99l.65-.2v.63c-.6.15-.6.28-.65-.43Z" style="fill: #ff7bac;"/>
            <path d="M34.1,75.73l.64-.2c.28.82-.75,1.08-.64.2Z" style="fill: #ff7bac;"/>
            <path d="M39.08,83.38c.1,0,.49-.18.53-.16.02,0,.12.5.11.53-.06.11-.46.09-.56.26l-.09-.62Z" style="fill: #ff7bac;"/>
            <path d="M42.24,75.34c.07-.01-.16.75.01.86l-.41.1c.04-.5-.25-.85.4-.96Z" style="fill: #ff7bac;"/>
            <path d="M40.1,81.95s.38-.01.51-.13v.56c-.11-.07-.54.18-.56.14-.01-.02-.02-.53.05-.58Z" style="fill: #ff7bac;"/>
            <path d="M31.95,79.8s.31-.11.35-.08l.07.78-.45.17c.21-.24-.07-.79.03-.87Z" style="fill: #ff7bac;"/>
            <path d="M37.76,74.59l.57-.15c-.15.14-.03.57-.05.59-.41.35-.52-.08-.52-.44Z" style="fill: #ff7bac;"/>
            <path d="M32.87,80.69c.52-.38.26.39.37.71l-.35.08c.11-.2-.11-.72-.02-.79Z" style="fill: #ff7bac;"/>
            <path d="M37.37,83.9c.4-.45.45.49.41.52-.56.48-.46-.46-.41-.52Z" style="fill: #ff7bac;"/>
            <path d="M42.36,78.95l.06.72-.46.17c.17-.55-.21-.58.4-.89Z" style="fill: #ff7bac;"/>
            <path d="M38.17,82.54c.5-.08.49-.08.41.52l-.41.04v-.56Z" style="fill: #ff7bac;"/>
            <path d="M37.27,73.6l.06.67c-.64.19-.28,0-.46-.46l.4-.22Z" style="fill: #ff7bac;"/>
            <path d="M32.68,78.38c.38-.26.53.84.02.74.09-.17-.11-.67-.02-.74Z" style="fill: #ff7bac;"/>
            <path d="M33.25,77.01c.1.16.45-.07.46-.05.02.03.04.59,0,.62-.53.16-.29-.14-.47-.57Z" style="fill: #ff7bac;"/>
            <path d="M41.12,80.57s.4-.07.41-.04c.02,1.08-.82.32-.41.04Z" style="fill: #ff7bac;"/>
            <path d="M40.79,74.78s.45-.13.46-.11.02.49,0,.51c-.03.03-.44.14-.46.11.15-.13-.08-.44,0-.51Z" style="fill: #ff7bac;"/>
            <path d="M36.09,75.05c.08.01.39-.07.41-.04.17.21-.38,1.36-.41.04Z" style="fill: #ff7bac;"/>
            <path d="M39.27,75.19c.12,1.04-.62.52-.45.23.06-.11.37-.07.45-.23Z" style="fill: #ff7bac;"/>
            <path d="M36.83,82.95c-.07.3.2.79-.23.77-.09,0-.14-.77.23-.77Z" style="fill: #ff7bac;"/>
            <path d="M39.13,81.24c.38-.3.43.32.4.35-.41.38-.57-.22-.4-.35Z" style="fill: #ff7bac;"/>
            <path d="M35.24,76.51l.4-.1-.05.52c-.43.22-.26-.11-.35-.43Z" style="fill: #ff7bac;"/>
            <path d="M33.73,81.66c0,.11.48.59.31.67-.49.13-.29-.21-.31-.67Z" style="fill: #ff7bac;"/>
            <path d="M37.37,81.78c.24-.29.27.43.24.46-.31.28-.3-.39-.24-.46Z" style="fill: #ff7bac;"/>
            <polygon points="37.06 75.94 37.36 75.88 37.25 76.36 37.06 75.94" style="fill: #ff7bac;"/>
            <path d="M35.82,82.26l.11.03c.18.81-.29.83-.11-.03Z" style="fill: #ff7bac;"/>
            <path d="M34.38,82.58l.25.63-.29.06c.16-.24.06-.46.04-.69Z" style="fill: #ff7bac;"/>
            <path d="M34.33,77.93c.38-.04.32.04.13.43l-.13-.43Z" style="fill: #ff7bac;"/>
          </g>
        </g>
      </g>
    </g>
    <path d="M86.82,70.79l-16.09-1.01c-1.06.57-2.13,1.12-3.21,1.65-.16.08-.31.14-.47.2l-1.53,24.38,19.64,1.23,1.66-26.45Z" style="fill: #ff00de;"/>
    <path d="M86.85,88.72l.18-.18-.21.07.04.11ZM87.74,84.76l.07-.04h-.07v.04Z" style="fill: #ff00de;"/>
    <path d="M80.84,81.9c-.07.04-.11-.11-.21-.11-.07.11.07.18.14.21-.11.14.04.21.04.35-.18-.07-.21-.35-.5-.28,0,.14.14.14.18.21,0,.11-.07,0-.11.07,0,.07.07.11.11.14,0,.07-.14.04-.14.11.07.14.18-.07.28-.07.11.14-.07.32-.18.35,0,.11.07.21.04.28-.14,0-.14.14-.21.28-.07,0-.11-.07-.18-.07-.04.07.07.14.18.14v.25h-.14c-.04-.11-.04-.25-.14-.25-.07.14-.11.28.11.46-.21,0-.35-.32-.53-.42-.14.21.18.35.28.46,0,.07-.07-.04-.11.04.04.11.14.14.25.07-.04.14-.11.11-.21.07-.14.04.04.11-.04.11-.18,0-.6-.35-.85-.57l-2.3-1.95-.14,6.69c-.39-.11-.74-.25-1.13-.35.46.5,1.91.71,2.51,1.1-.07.07.04.18,0,.28.14.04.28-.07.35-.14l.39.18c.04.07-.07.18.11.18-.04.11-.18.14-.28.18.04.11.04.07,0,.14,0,.07.04.07.11.07v.04s-.07.03-.07.03c-.04-.03-.04-.11-.07-.14-.07,0-.18,0-.21.04.04.11.14.07.21.14-.46.18-.46.67-.71.99l-.21-.14c-.11.04-.07.21-.04.28.07-.04.11-.11.21-.07-.04.07.04.07.04.18-.07,0-.07-.07-.11,0,.14.25-.11.43-.14.64-.07.04-.11-.04-.14,0,0,.07.04.11.11.11-.07.18-.25.25-.35.35.04.11.18.14.28.18.07.46-.11.6-.35.74,0,.07.07.07.11.07-.46.14-.5.78-1.03.74.11-.14-.04-.21-.18-.25-.04,0,0,.07-.07.07.04.07.11.11.18.11l-.11.07c.04.07.11.14.18.18-.07.11-.14-.14-.25-.03,0,.14.18.14.25.25-1.63-.39-3.08-1.03-4.71-1.42-.04-.04,0-.11-.07-.11-.11.18-.46.07-.64.03,0-.11-.04-.18-.04-.28-.32-.11-.57-.21-.85-.32,0-.18.21-.35.11-.5l.11-.25c.11.07-.04.14-.04.21.18,0,.28,0,.42.14.07-.03.07-.14.14-.14-.04-.07-.11-.07-.14-.11,0-.07.14,0,.14-.07,0-.11-.11-.11-.21-.11-.11.07.11.11.04.18-.18,0-.28-.25-.28-.5.07-.07.21-.07.28-.18-.04-.14-.04-.32-.04-.46.07.04.14.04.21-.04-.25-.25.04-.6,0-.96.04,0,.07-.04.11-.04-.07-.18-.04-.42.07-.53-.25-.32.18-.71,0-.96.32-.25.39-.74.57-1.03.04-.11-.04-.11-.07-.14-.04-.11.07-.07.07-.14.04-.11-.11-.11-.11-.18.42.14.88.32,1.38.42-.25-.32-1.1-.35-1.49-.64-.04,0-.04.03-.07.03,0,.11.07.14.07.21-.11.18-.21.32-.32.46.04.14,0,.35-.14.39l.11-6.65s-1.03-.74-1.27-1.17c.25-.21.42-.46.74-.53-.04-.07,0-.25.07-.32,0-.04.07.04.07.04.14-.21.11-.32.35-.46.11-.07.18-.32.14-.42.11-.04.28.11.42.18.07-.07.11-.14.18-.18-.14-.11-.28.04-.42-.11.04-.07.11-.14.18-.18.42.04.57.35.92.53-.07.25.28.21.39.32,0-.07.11-.04.07-.11-.18-.04-.28-.18-.46-.21,0-.39-.64-.35-.64-.78.11,0,.14.11.25.14.07-.07-.07-.32.07-.35h.04c-.04-.07-.04-.14-.11-.14.04-.11.11-.18.14-.28,0,.14.14.18.32.25.07-.11-.11-.14-.07-.25.18,0,.07-.25,0-.28.07-.11.18.07.25,0,0-.14-.11-.14-.11-.25.11.04.11-.07.21-.04.04-.07-.04-.11-.04-.14-.11,0-.14.03-.14.07-.04-.07.04-.28.18-.28,0-.11-.07-.11-.04-.21.11,0,.07.18.18.21.14-.11-.07-.21-.04-.35.07.11.25.04.35,0,0-.07-.04-.11-.07-.18.07-.04.11-.14.14-.21l3.4,2.55c-.11.11-.28.28-.18.53.07-.07.14-.14.11-.28.32-.04.46-.21.46-.53.07,0,.14.04.18.07.04-.04.04-.14.04-.25.14-.11.35-.18.42-.35.28.04.28-.18.25-.35.04-.07.14-.07.18-.18.04-.11-.07-.11-.04-.21.07,0,.14.11.18.04,0-.11-.07-.11-.07-.21.07,0,.07.07.11.11.04-.04.11-.11.04-.11.18-.04.25.21.46.25.04-.14.14-.14.14-.21.04-.07.07.04.18,0-.04-.14-.25-.32-.5-.32-.04.07.14.14,0,.28-.11-.04-.11-.14-.21-.14.07-.18.28-.25.39-.39.11.04.14.14.25.18-.07.03-.11-.04-.18.03,0,.11.21.18.25.04l1.95,1.8c0,.5,0,1.03.07,1.49-.04-.07-.07-.11-.14-.11-.07.07.04.18.07.21.04-.04.07-.04.07-.11.07.14.07.28-.04.35,0,.11.11.11.11.18-.11.04-.14-.04-.25-.07-.04.11.14.32.21.21.04.11-.07.21.07.28-.07.21-.07.53-.11.74-.11,0-.14-.07-.21-.11-.07.18.21.21.21.42,0,.11-.14.07-.18.11.04.11.14.11.18.21-.04.14-.07.28.07.39ZM70.3,92.19s-.18-.11-.18,0c.04,0,.04.04.07.07.07,0,.07-.04.11-.07ZM70.79,78.96c.04-.07.11-.11.14-.14-.07-.07-.21-.14-.28-.11.04.11.07.21.14.25ZM70.68,84.8c.07.04.18.11.25.04,0-.11-.11-.18-.18-.21-.04.03-.07.07-.07.18ZM70.79,85.43c.07.07.14.11.21.11.11-.11-.18-.25-.21-.11ZM70.83,83.91c0,.18.18.21.18,0-.07,0-.14-.07-.18,0ZM71.89,78.5c-.07.11-.14.25-.28.21-.04-.11-.14-.14-.21-.18-.04.11-.07,0-.14.07,0,.21.21.28.39.18,0,.07.07.11.11.18.07-.07.21,0,.28-.04,0-.11-.11-.04-.11-.11.07,0,.11.07.18.07.04-.18-.07-.35-.21-.39ZM71.29,78.43c.18.04.32.14.46.25,0-.07.07-.07.07-.14-.07-.07-.11-.14-.18-.18-.07.04-.07.07-.11.07-.04-.11-.18-.11-.25-.18-.04.04,0,.11,0,.18ZM72.1,78.14c-.14-.04-.18-.21-.18-.42-.11-.07-.28,0-.28.14.11.11.07.21.25.18-.04.14.18.21.21.11ZM72.14,76.87c.04.14.11.18.25.21.11-.18-.11-.32-.25-.21ZM72.38,77.79c-.07-.04-.07-.14-.18-.11-.07.07.14.25.18.11ZM72.49,84.16c.11,0,.14-.11.21-.18.04.07.11.07.18.14-.07.11-.14.21-.14.39.04,0,.04.07.11.07.04,0,.07-.04.11-.04,0-.18,0-.35-.04-.46.07,0,.18.03.18-.04-.14-.04-.25-.07-.28-.25.07,0,.18.04.21,0,.07-.11-.14-.11-.07-.25-.04,0-.07-.07-.14-.04-.07.07-.04.21-.14.21-.04.04.04.18-.04.18-.11-.04,0-.32-.14-.28.07.18-.07.35,0,.53ZM73.13,87.38l-.57-.21c0,.18.39.35.57.21ZM72.6,78.53c.04.11.14.25.25.18-.04-.11-.07-.21-.18-.25-.04.04-.04.07-.07.07ZM72.63,76.59c.07.04.11.07.21.11.04-.11-.07-.21.07-.25-.14-.07-.25.04-.28.14ZM72.77,76.02c0,.11.04.18.14.18.07-.07-.07-.25-.14-.18ZM72.81,77.61c.07,0,.11.07.21.11.07-.11-.18-.25-.21-.11ZM73.44,83.81c-.04.07-.04.14-.07.18.04-.21-.14-.28-.25-.35-.07.07-.11.14-.11.28.07.04.18,0,.18.07s-.04.04-.04.11c.07.11.14.18.32.18-.04-.14.14-.32-.04-.46ZM73.06,85.15s-.04.07-.04.14c.11,0,.11.11.18.07.14-.11-.04-.18-.14-.21ZM73.09,82.89c0,.07.04.07.04.11.28.04.14-.25-.04-.11ZM73.13,87.45c.46.14.96.46,1.45.43-.5-.11-.99-.5-1.45-.43ZM73.16,76.62c.18.04.21.32.42.25-.11-.21-.25-.32-.39-.5-.04.07-.04.14-.04.25ZM73.23,78.07c.07.21.28.28.5.35-.04-.14-.25-.42-.5-.35ZM73.59,82.67c-.11-.07-.25.04-.32.04,0,.07,0,.18.04.18.07-.11.28-.07.28-.21ZM73.41,84.59c-.07.11-.11.25-.14.35.07,0,.04.11.14.07.14,0,.14-.39,0-.42ZM73.34,77.44c0,.11.04.14.14.11l.07-.11c-.07,0-.18-.07-.21,0ZM73.62,77.33c.04-.11-.11-.18-.21-.21-.04.07.07.21.21.21ZM73.52,76.59c.14.32.39.21.6.39,0-.28-.28-.39-.46-.57-.07.04-.04.18-.14.18ZM73.66,85.22c.11-.07,0-.21-.07-.25-.07.07-.04.25.07.25ZM73.83,82.32c-.04.18-.21.14-.25.32.14.04.42-.21.25-.32ZM73.83,84.87s.04-.18,0-.21c-.14,0-.18.04-.18.11l.18.11ZM73.69,76.31c0,.11.14.18.25.11.04-.14-.18-.18-.25-.11ZM73.83,84.2h-.07c-.04.07,0,.18,0,.25.14.04.11-.18.07-.25ZM73.8,85.19h.14c0-.11-.07-.14-.14-.18-.04.04-.04.14,0,.18ZM74.05,84.8c.04-.14.07-.21.11-.32,0-.04-.11,0-.11-.04.11-.07.04-.28-.04-.32-.07.25.04.43-.14.6.07.04.14.04.18.07ZM74.12,77.3c-.04-.11-.11-.21-.21-.25-.07.11.11.32.21.25ZM74.01,78.07l-.11.07c.07.25.32.04.11-.07ZM74.58,81.86s.04-.14,0-.21c.07.04.11.04.14,0,0-.07-.04-.11-.07-.18-.04,0-.07,0-.11.04-.04.04,0,.07,0,.11-.07,0-.07.11-.14.18,0-.04-.04-.04-.11-.04-.04.04.07.07,0,.11-.14-.03-.21.14-.35.21.04.03.14.03.11.11h-.11c-.07.04.04.11-.04.18.32.14.46-.25.5-.43.04,0,.04.04.11.04.07-.07-.11-.18.07-.11ZM74.22,93.08c-.07-.04-.21-.04-.28,0,0,.14.28.18.28,0ZM74.22,93.82c0-.14-.14-.14-.18-.04.07,0,.14.07.18.04ZM74.58,93.86c-.04-.14-.21-.11-.18-.25-.11,0-.21-.07-.28,0,.11.11.32.25.46.25ZM74.33,85.36c.04-.11.07-.32.21-.28-.07-.11-.21-.21-.14-.39-.18,0-.04-.18-.18-.21.07.28-.32.81.11.89ZM74.15,78.25c.07.04.11.14.14.11.04-.14-.11-.18-.14-.11ZM74.22,76.45c.14.18.32.35.5.46-.04-.14-.28-.46-.5-.46ZM74.58,78.11c0-.11-.21-.21-.28-.11.11.04.21.14.28.11ZM74.58,93.64c0-.07.04-.11.07-.14-.07-.04-.11-.11-.18-.04.04.07.04.11.11.18ZM74.54,81.61h.04v.04s0-.04-.04-.04ZM74.79,85.08c.07-.04.11-.07.07-.18-.04-.03-.07-.11-.14-.14-.04.11-.11.14-.14.21.18,0,.07.32.28.28.04-.07-.04-.11-.07-.18ZM74.86,80.98c0-.14-.21-.21-.25-.11.07.04.14.14.25.11ZM75.14,77.93c-.07-.07-.21-.07-.32-.14.07-.07-.07-.18-.14-.18-.07.07.04.11-.04.21.11.14.32.25.5.11ZM74.65,87.98s.21.11.21,0c-.07,0-.18-.11-.21,0ZM74.65,93.61s.14.14.21.07c.04-.14-.18-.18-.21-.07ZM74.86,83.45c0-.07-.07-.07-.11-.11-.04.03-.07.25,0,.25.04-.07.11-.04.11-.14ZM74.75,83.95c0,.07-.11.32.04.35.11-.07.11-.35-.04-.35ZM75,81.4c-.07-.11-.28-.11-.28.04.04.11.21.04.28-.04ZM75.04,93.89c-.04-.07-.21-.07-.28-.04.04.14.25.18.28.04ZM74.79,77.51c0,.11.07.14.14.14.07-.04-.07-.21-.14-.14ZM75.11,81.29c.11-.11.07-.35,0-.46-.28.03-.21.42,0,.46ZM74.93,77.72s.04.11.11.07c.07,0,.11-.04.07-.11-.04-.04-.18-.07-.18.04ZM75.25,88.12c-.07-.04-.21-.14-.32-.07.04.11.25.18.32.07ZM75.32,86.39c-.04-.11-.14-.21-.28-.14.04.07.18.18.28.14ZM75.39,85.58c-.14,0-.14-.11-.18-.21h-.11c-.04.11.07.21.11.28.04-.03.14,0,.18-.07ZM75.11,80.73c0,.11.04.11.07.18.14,0,.21-.04.21-.18-.07-.07-.18,0-.28,0ZM75.11,85.89c0,.11.07.32.21.35.04-.14-.11-.32-.21-.35ZM75.18,93.93c.07.03.14.11.25.07.11-.11-.25-.28-.25-.07ZM75.46,85.04c-.07-.04-.07-.14-.14-.14-.07.04-.04.21.07.25,0-.07.07-.07.07-.11ZM75.53,78c.14,0,.18-.11.21-.18-.04,0-.04-.04-.07-.04-.07-.04-.04.07-.11.07.04-.11-.07-.14-.14-.07.04.11.11.11.11.21ZM75.85,80.06c.04-.12-.14-.23-.28-.25-.04.09.11.21.28.25ZM75.67,84.94c-.11.11-.04.46.14.5.21-.14-.04-.35-.14-.5ZM75.64,79.35c.07.04.14.18.21.11,0-.07-.04-.11-.04-.18-.07,0-.18,0-.18.07ZM76.13,78.96c-.04-.14-.21-.25-.32-.14.04.11.07.21.14.25.04-.11.11-.04.18-.11ZM76.38,85.58c-.07,0-.18,0-.21.04,0,.11.07.21.18.21.04-.04.04-.21.04-.25ZM76.52,90.6c0,.07.07.11.07.14.11.04.18.04.25-.07-.11-.03-.21-.14-.32-.07ZM76.56,90.99c.07,0,.11-.04.11-.07-.04-.07-.04-.11-.11-.11-.04.07-.04.14,0,.18ZM76.84,92.4c0-.18-.21-.18-.28-.14v.11c.07.04.18.11.28.04ZM76.59,90.39c.07.03.07.07.18.07.04-.04.07-.04.07-.11-.07-.07-.25-.11-.25.04ZM76.88,79.35c.04-.07-.11-.18-.21-.21-.07.14.07.21.21.21ZM76.7,77.86c.11,0,.14.11.25.14.04-.14-.11-.21-.14-.28-.04.04-.11.04-.11.14ZM76.95,91.52s-.18-.11-.21-.07c-.04.14.21.25.21.07ZM77.02,80.8c-.04-.11-.11-.14-.18-.18-.11.11.07.25.18.18ZM77.02,78.5c-.04.07.07.18.14.21.04-.07-.07-.18-.14-.21ZM77.02,91.63s.21.14.28.04c-.04-.07-.25-.14-.28-.04ZM77.41,79.6c-.04-.07-.07-.11-.14-.14-.04.07-.07.07-.07.14.04.04.18.04.21,0ZM77.51,79.67c.07.04.18.14.25.07.04-.11-.21-.14-.25-.07ZM78.11,78.46c-.07-.14-.18-.21-.32-.28-.11.21.14.39.32.28ZM77.87,76.66s.04.04.07.07c.07-.04.11-.07.11-.14-.07-.07-.14.04-.18.07ZM78.22,82.57c-.04-.18-.18-.32-.35-.25.04.11.21.25.35.25ZM77.94,76.41c.07,0,.25.07.28.04.04-.14-.07-.18-.14-.25-.04.11-.18.07-.14.21ZM77.94,89.75c0,.14.21.11.32.14.07-.07-.11-.14-.04-.18.11-.04.14.11.18.04-.04-.14-.21-.21-.35-.14-.04.07.04.04.07.11-.07,0-.18-.04-.18.04ZM78.22,76.91c.18.07.28.32.46.28,0-.07-.14-.11-.04-.21-.14,0-.28-.21-.42-.07ZM78.61,78.14c0-.07.11-.04.07-.11-.07,0-.14-.11-.21-.14-.07.11.07.21.14.25ZM78.68,77.61s-.18-.04-.21,0v.14c.11,0,.14.11.21.14.04-.07-.04-.14,0-.28ZM78.93,82.78c0-.11-.11-.07-.11-.14-.07-.03-.14.07-.14,0,0-.11.04-.18-.04-.21-.11,0-.18,0-.18.11.04.04.11,0,.11.07s-.07.07-.07.18c.14.07.25.04.42,0ZM78.82,83.24c-.07-.07-.18-.07-.25.04.07,0,.25.04.25-.04ZM78.79,89.54c0,.07-.07.04-.07.11-.07-.04-.04-.18-.14-.18.04-.04.18.04.21.07ZM78.75,77.61c-.04-.11-.04-.21-.14-.21-.11.07.07.25.14.21ZM78.65,76.31c0,.11.04.14.14.14.07-.07-.07-.21-.14-.14ZM78.86,77.37c0-.11-.07-.14-.11-.18-.07.07,0,.25.11.18ZM79.18,82.82c-.11-.18-.18-.35-.42-.39,0,.14.21.43.42.39ZM78.86,76.87c.04.07.11.11.18.14.04-.04-.07-.25-.18-.14ZM78.96,79.49c-.11.21.18.39.39.42,0-.18-.21-.35-.39-.42ZM78.96,76.45c.04.11.18.18.25.18.04-.14-.14-.21-.25-.18ZM79.28,82.32c-.07-.07-.14-.07-.07-.18-.04-.04-.07-.11-.18-.11-.14.14.11.42.25.28ZM79.64,78.99c0-.18-.32-.39-.5-.42.11.21.28.32.5.42ZM79.21,76.94c-.04.18.25.46.35.32-.14-.07-.21-.21-.35-.32ZM79.28,83.77c-.04.07.04.18.14.18.04-.07-.07-.14-.14-.18ZM79.49,79.28c-.04-.11-.11-.14-.18-.14-.07.07.07.21.18.14ZM79.49,76.87c.04-.07-.04-.14-.11-.18-.04.07.04.14.11.18ZM79.64,79.88c.04-.11-.14-.25-.25-.28-.04.11.14.21.25.28ZM79.67,83.35c0-.14-.21-.18-.21,0,.04,0,.14.03.21,0ZM79.53,76.91c0,.14.21.11.21,0-.07-.07-.14-.07-.21,0ZM79.53,80.44c.07.14.14.28.25.39.07,0,.11-.07.14-.14-.04-.07-.18,0-.18-.07-.04-.07.04-.07.04-.14-.04-.04-.21-.14-.25-.04ZM79.85,80.27c.07,0,.07-.04.11-.07-.14-.14-.21,0-.35-.11,0,0-.04.03-.04.07.07.21.25.35.46.46.11-.18-.14-.21-.18-.35ZM79.78,77.01s-.11.04-.14.07c-.04.07.04.04.04.07.11,0,.14-.07.11-.14ZM79.71,77.26c.11.04.21.25.35.18-.04-.14-.28-.25-.35-.18ZM79.92,82.46c-.07,0-.07-.07-.14-.07-.07.07-.07.14,0,.21.07-.04.14-.04.14-.14ZM79.99,81.19c-.04.14-.14,0-.21.11,0,.42.53.04.21-.11ZM80.13,82.14c-.04-.11-.21-.35-.35-.35.04.18.18.28.35.35ZM80.1,79.28c-.04-.07-.11-.07-.18-.11-.04.04-.04.07-.04.14.14.03.25.03.39,0-.04-.14-.11-.14-.18-.04ZM79.92,82.85c-.07.21.07.42.28.42.04-.14-.18-.32-.28-.42ZM79.99,82.71c.07.04.11,0,.11-.04-.07-.04-.07-.14-.18-.14,0,.11-.04.42.18.35,0-.11-.07-.11-.11-.18ZM79.99,78.99c0,.11.04.14.11.18,0-.04.11,0,.11-.07-.04-.07-.14-.14-.21-.11ZM80.27,80.44s-.04.04-.04.11c.04,0,.14.04.18-.04-.07,0-.07-.11-.14-.07-.04-.14-.11-.21-.25-.25-.04.11.11.21.18.25h.07ZM80.27,80.13c-.04-.14-.07-.21-.18-.28,0,.03-.07.03-.07.07.04.11.14.25.25.21ZM80.66,81.15c-.07-.07-.25-.04-.25.04-.04-.07-.07-.07-.11-.11.14-.07,0-.18-.11-.21-.04.07.04.11.07.18-.04,0-.07,0-.07.04.07.03,0,.11,0,.18.04,0,.04.07.11.07.07-.04.11-.07.14-.14.04.11.18,0,.21-.04ZM80.49,80.34c-.04-.11-.07-.18-.18-.21,0,.07-.11.07-.11.14.11.04.21.14.28.07ZM80.24,79.17c.07.04.32.04.32-.07-.11-.07-.18,0-.28-.07-.04.04-.04.07-.04.14ZM80.49,79.77c0-.07-.11-.18-.18-.14-.04.14.11.21.18.14ZM80.56,79.63c-.04-.14-.07-.21-.18-.21-.04.07.11.25.18.21ZM80.41,78.82c0,.11.04.14.14.18.07-.11-.07-.25-.14-.18Z" style="fill: #343e3d;"/>
    <path d="M122.18,68.9v7.29c.63-.96,1.37-1.46,2.21-1.5,1.58-.08,2.37,1.31,2.37,4.16v8.67h.97v4.96h-4.18v-4.96h.74v-5.82c0-1.47-.28-2.24-.83-2.3-.85-.09-1.28,1.04-1.28,3.4v4.72h.76v4.96h-4.18v-4.96h.95v-14.67h-.95v-3.96h3.42Z" style="fill: #fff;"/>
    <path d="M82.77,87.36c-1.29-6.87,5.19-9.66,11.25-10.4l3.34,15.93-3.79.71-1.12-2.19-1.43,2.57c-2.79.52-7.23-1.21-8.25-6.62ZM91.82,89.62l-.88-3.85s-2,.57-1.7,2.19c.39,2.1,2.58,1.65,2.58,1.65Z" style="fill: #fff;"/>
    <path d="M41.35,66.65l-3.55,28.94h-5.89l3.55-28.94h-11.58l.73-5.94h29.09l-.73,5.94h-11.63Z" style="fill: #fff;"/>
    <path d="M67.5,72.25l-2.02,19.88c-.07.67-.27,1.03-.59,1.08-.37.04-1.22,0-2.52-.14s-2.13-.29-2.61-.49c-.37-.15-.51-.58-.44-1.3.17-1.65.43-4.14.8-7.46s.63-5.81.8-7.46c.22-2.25-.35-3.44-1.71-3.58-.46-.05-1.03.21-1.71.76-.74.6-1.15,1.27-1.22,2l-.71,7.12c-.09.92-.22,2.31-.38,4.17s-.29,3.24-.38,4.17c-.07.71-.29,1.09-.65,1.13s-1.36-.02-3-.18c-.94-.09-1.61-.24-2.01-.43s-.57-.55-.52-1.07c.15-1.52.39-3.8.7-6.84s.55-5.32.7-6.84c.63-6.28,1.11-11.48,1.44-15.6.11-1.44.22-2.89.35-4.33.11-1.68.15-3.12.12-4.32,0-.25,0-.44,0-.55.03-.29.13-.47.32-.55.37-.14.9-.19,1.6-.16.92.03,1.46.04,1.61.02l3.17-.29c.18.02.25.23.21.63-.06.61-.17,1.45-.32,2.5-.17,1.22-.28,2.06-.32,2.5-.5,4.33-.88,7.76-1.13,10.28-.04.38,0,.58.11.59.02,0,.35-.3.98-.92.74-.72,1.44-1.28,2.1-1.68.97-.58,1.88-.83,2.73-.75,1.47.15,2.63.91,3.49,2.3.93,1.49,1.27,3.43,1.03,5.84Z" style="fill: #fff; stroke: #343e3d; stroke-miterlimit: 10;"/>
    <path d="M139.55,88.72l-5.11.75-4.25-4.25-.52-26.63,10.16-.63,2.41,3.79-2.7,26.97ZM136.39,98.54l-5.11-2.12s-1.32-2.81-.46-4.19c.92-1.43,4.19-1.26,4.19-1.26l4.76,3.1s.98,2.35.23,3.5c-.8,1.2-3.62.98-3.62.98ZM139.21,58.88l-7.57.46,1.89,1.78,6.94-.17-1.26-2.07ZM133.81,62.55l1.44,25.02,3.5-.46,2.07-24.39-7-.17ZM134.84,94.86c-.46,1.15,1.26,2.64,2.47,2.41,2.64-.52,2.07-2.35,1.03-3.1-1.15-.86-2.35-2.01-3.5.69Z" style="fill: #fff;"/>
    <path d="M122.15,37.4c0,.05-.21.74-.27.99-.09.36-.2.76-.29,1.13-.08.32-.18.66-.27.99-.08.32-.18.66-.27.99-.1.37-.2.76-.29,1.13-.1.37-.2.76-.29,1.13-.08.32-.18.66-.27.99-.1.37-.2.75-.29,1.13-.08.32-.18.66-.27.99-.1.37-.2.75-.29,1.13-.08.32-.18.66-.27.99-.1.37-.2.75-.29,1.13-.08.32-.18.66-.27.99-.1.37-.19.75-.29,1.13-.08.32-.18.66-.27.99-.1.38-.19.75-.29,1.13-.08.32-.18.66-.27.99-.08.32-.18.66-.27.99-.1.37-.2.75-.29,1.13-.08.32-.18.66-.27.99-.1.37-.2.75-.29,1.13-.1.37-.2.75-.29,1.13-.08.32-.18.66-.27.99-.1.37-.2.75-.29,1.13-.08.32-.18.66-.27.99-.1.37-.2.75-.29,1.13-.08.32-.18.66-.27.99-.1.37-.2.75-.29,1.13-.08.32-.18.66-.27.99-.1.37-.2.75-.29,1.13-.08.32-.18.65-.27.99-.1.37-.2.75-.29,1.13-.08.32-.18.65-.27.99-.09.37-.2.74-.29,1.13-.09.38-.23.7-.29,1.13-.05.23-.4,1.06-.28,1.28l9.12,1.71-.03.14-29.12,46.62h-.08s.11-.59.11-.59c.06-.28.19-.68.27-.99.11-.43.21-.85.32-1.27.08-.31.18-.66.27-.99.1-.37.2-.75.29-1.13.1-.37.2-.75.29-1.13.08-.32.18-.66.27-.99.1-.37.2-.75.29-1.13.08-.32.18-.66.27-.99.1-.37.2-.75.29-1.13.1-.37.2-.75.29-1.13.08-.32.18-.66.27-.99.1-.37.2-.75.29-1.13.08-.32.18-.66.27-.99.1-.37.2-.75.29-1.13.1-.37.2-.75.29-1.13.08-.32.18-.66.27-.99.08-.32.18-.66.27-.99.11-.43.21-.85.32-1.27.08-.32.18-.66.27-.99.1-.37.2-.75.29-1.13.1-.37.2-.75.29-1.13.08-.32.18-.66.27-.99.1-.37.2-.75.29-1.13.08-.32.18-.66.27-.99.1-.37.2-.75.29-1.13.1-.37.2-.75.29-1.13.08-.32.18-.66.27-.99.08-.32.18-.66.27-.99.1-.37.2-.75.29-1.13.1-.37.2-.75.29-1.13.08-.32.18-.65.27-.99.08-.32.18-.66.27-.99.09-.37.2-.74.29-1.13.1-.37.2-.74.29-1.13.07-.28.27-.68.29-1.13,0-.03.25-.28.15-.56l-8.92-1.9,28.81-46.3.15-.12c.06.03,0,.19-.01.29Z" style="fill: #ff00de; stroke: #343e3d; stroke-miterlimit: 10;"/>
  </g>
</svg>